%TF.GenerationSoftware,KiCad,Pcbnew,7.0.5-0*%
%TF.CreationDate,2024-01-10T22:08:40+09:00*%
%TF.ProjectId,Misawa_DistanceSensor,4d697361-7761-45f4-9469-7374616e6365,v0.3*%
%TF.SameCoordinates,Original*%
%TF.FileFunction,Drillmap*%
%TF.FilePolarity,Positive*%
%FSLAX45Y45*%
G04 Gerber Fmt 4.5, Leading zero omitted, Abs format (unit mm)*
G04 Created by KiCad (PCBNEW 7.0.5-0) date 2024-01-10 22:08:40*
%MOMM*%
%LPD*%
G01*
G04 APERTURE LIST*
%ADD10C,0.150000*%
%ADD11C,0.200000*%
%ADD12C,0.040000*%
%ADD13C,0.100000*%
G04 APERTURE END LIST*
D10*
X12686000Y-13300000D02*
G75*
G03*
X12940000Y-13046000I0J254000D01*
G01*
X10654000Y-9617000D02*
G75*
G03*
X10400000Y-9871000I0J-254000D01*
G01*
X10654000Y-13300000D02*
X12686000Y-13300000D01*
X10400000Y-13046000D02*
G75*
G03*
X10654000Y-13300000I254000J0D01*
G01*
X12940000Y-13046000D02*
X12939826Y-9871000D01*
X12939826Y-9871000D02*
G75*
G03*
X12686000Y-9617174I-253826J0D01*
G01*
X12686000Y-9617174D02*
X10654000Y-9617000D01*
X10400000Y-9871000D02*
X10400000Y-13046000D01*
D11*
D12*
X10507000Y-10105000D02*
X10547000Y-10145000D01*
X10547000Y-10105000D02*
X10507000Y-10145000D01*
X10507000Y-10486000D02*
X10547000Y-10526000D01*
X10547000Y-10486000D02*
X10507000Y-10526000D01*
X10507000Y-10867000D02*
X10547000Y-10907000D01*
X10547000Y-10867000D02*
X10507000Y-10907000D01*
X10507000Y-12264000D02*
X10547000Y-12304000D01*
X10547000Y-12264000D02*
X10507000Y-12304000D01*
X10519700Y-11413100D02*
X10559700Y-11453100D01*
X10559700Y-11413100D02*
X10519700Y-11453100D01*
X10519700Y-11806800D02*
X10559700Y-11846800D01*
X10559700Y-11806800D02*
X10519700Y-11846800D01*
X10621300Y-11171800D02*
X10661300Y-11211800D01*
X10661300Y-11171800D02*
X10621300Y-11211800D01*
X11015000Y-12645000D02*
X11055000Y-12685000D01*
X11055000Y-12645000D02*
X11015000Y-12685000D01*
X11015000Y-13026000D02*
X11055000Y-13066000D01*
X11055000Y-13026000D02*
X11015000Y-13066000D01*
X11421400Y-13025700D02*
X11461400Y-13065700D01*
X11461400Y-13025700D02*
X11421400Y-13065700D01*
X11446800Y-10701900D02*
X11486800Y-10741900D01*
X11486800Y-10701900D02*
X11446800Y-10741900D01*
X11446800Y-11527400D02*
X11486800Y-11567400D01*
X11486800Y-11527400D02*
X11446800Y-11567400D01*
X11472200Y-11616300D02*
X11512200Y-11656300D01*
X11512200Y-11616300D02*
X11472200Y-11656300D01*
X11514750Y-11095600D02*
X11554750Y-11135600D01*
X11554750Y-11095600D02*
X11514750Y-11135600D01*
X11831050Y-11019400D02*
X11871050Y-11059400D01*
X11871050Y-11019400D02*
X11831050Y-11059400D01*
X11904000Y-10943200D02*
X11944000Y-10983200D01*
X11944000Y-10943200D02*
X11904000Y-10983200D01*
X11904000Y-11514700D02*
X11944000Y-11554700D01*
X11944000Y-11514700D02*
X11904000Y-11554700D01*
X12056400Y-11667100D02*
X12096400Y-11707100D01*
X12096400Y-11667100D02*
X12056400Y-11707100D01*
X12285000Y-12645000D02*
X12325000Y-12685000D01*
X12325000Y-12645000D02*
X12285000Y-12685000D01*
X12285000Y-13026000D02*
X12325000Y-13066000D01*
X12325000Y-13026000D02*
X12285000Y-13066000D01*
X12615200Y-11781400D02*
X12655200Y-11821400D01*
X12655200Y-11781400D02*
X12615200Y-11821400D01*
X12793000Y-10105000D02*
X12833000Y-10145000D01*
X12833000Y-10105000D02*
X12793000Y-10145000D01*
X12793000Y-10486000D02*
X12833000Y-10526000D01*
X12833000Y-10486000D02*
X12793000Y-10526000D01*
X12793000Y-10867000D02*
X12833000Y-10907000D01*
X12833000Y-10867000D02*
X12793000Y-10907000D01*
X12793000Y-11375000D02*
X12833000Y-11415000D01*
X12833000Y-11375000D02*
X12793000Y-11415000D01*
X12793000Y-11756000D02*
X12833000Y-11796000D01*
X12833000Y-11756000D02*
X12793000Y-11796000D01*
X12793000Y-12264000D02*
X12833000Y-12304000D01*
X12833000Y-12264000D02*
X12793000Y-12304000D01*
D13*
X10958000Y-10379000D02*
G75*
G03*
X10958000Y-10379000I-50000J0D01*
G01*
X10958000Y-10633000D02*
G75*
G03*
X10958000Y-10633000I-50000J0D01*
G01*
X10958000Y-10887000D02*
G75*
G03*
X10958000Y-10887000I-50000J0D01*
G01*
X10958000Y-11141000D02*
G75*
G03*
X10958000Y-11141000I-50000J0D01*
G01*
X10958000Y-11395000D02*
G75*
G03*
X10958000Y-11395000I-50000J0D01*
G01*
X10958000Y-11649000D02*
G75*
G03*
X10958000Y-11649000I-50000J0D01*
G01*
X10958000Y-11903000D02*
G75*
G03*
X10958000Y-11903000I-50000J0D01*
G01*
X11335000Y-10565000D02*
G75*
G03*
X11335000Y-10565000I-50000J0D01*
G01*
X11589000Y-10565000D02*
G75*
G03*
X11589000Y-10565000I-50000J0D01*
G01*
X11843000Y-10565000D02*
G75*
G03*
X11843000Y-10565000I-50000J0D01*
G01*
X12097000Y-10565000D02*
G75*
G03*
X12097000Y-10565000I-50000J0D01*
G01*
X12482000Y-10379000D02*
G75*
G03*
X12482000Y-10379000I-50000J0D01*
G01*
X12482000Y-10633000D02*
G75*
G03*
X12482000Y-10633000I-50000J0D01*
G01*
X12482000Y-10887000D02*
G75*
G03*
X12482000Y-10887000I-50000J0D01*
G01*
X12482000Y-11141000D02*
G75*
G03*
X12482000Y-11141000I-50000J0D01*
G01*
X12482000Y-11395000D02*
G75*
G03*
X12482000Y-11395000I-50000J0D01*
G01*
X12482000Y-11649000D02*
G75*
G03*
X12482000Y-11649000I-50000J0D01*
G01*
X12482000Y-11903000D02*
G75*
G03*
X12482000Y-11903000I-50000J0D01*
G01*
D11*
X10653277Y-13618984D02*
X10653277Y-13418984D01*
X10653277Y-13418984D02*
X10700896Y-13418984D01*
X10700896Y-13418984D02*
X10729467Y-13428508D01*
X10729467Y-13428508D02*
X10748515Y-13447555D01*
X10748515Y-13447555D02*
X10758039Y-13466603D01*
X10758039Y-13466603D02*
X10767563Y-13504698D01*
X10767563Y-13504698D02*
X10767563Y-13533269D01*
X10767563Y-13533269D02*
X10758039Y-13571365D01*
X10758039Y-13571365D02*
X10748515Y-13590412D01*
X10748515Y-13590412D02*
X10729467Y-13609460D01*
X10729467Y-13609460D02*
X10700896Y-13618984D01*
X10700896Y-13618984D02*
X10653277Y-13618984D01*
X10853277Y-13618984D02*
X10853277Y-13485650D01*
X10853277Y-13523746D02*
X10862801Y-13504698D01*
X10862801Y-13504698D02*
X10872324Y-13495174D01*
X10872324Y-13495174D02*
X10891372Y-13485650D01*
X10891372Y-13485650D02*
X10910420Y-13485650D01*
X10977086Y-13618984D02*
X10977086Y-13485650D01*
X10977086Y-13418984D02*
X10967563Y-13428508D01*
X10967563Y-13428508D02*
X10977086Y-13438031D01*
X10977086Y-13438031D02*
X10986610Y-13428508D01*
X10986610Y-13428508D02*
X10977086Y-13418984D01*
X10977086Y-13418984D02*
X10977086Y-13438031D01*
X11100896Y-13618984D02*
X11081848Y-13609460D01*
X11081848Y-13609460D02*
X11072324Y-13590412D01*
X11072324Y-13590412D02*
X11072324Y-13418984D01*
X11205658Y-13618984D02*
X11186610Y-13609460D01*
X11186610Y-13609460D02*
X11177086Y-13590412D01*
X11177086Y-13590412D02*
X11177086Y-13418984D01*
X11434229Y-13618984D02*
X11434229Y-13418984D01*
X11434229Y-13418984D02*
X11500896Y-13561841D01*
X11500896Y-13561841D02*
X11567562Y-13418984D01*
X11567562Y-13418984D02*
X11567562Y-13618984D01*
X11748515Y-13618984D02*
X11748515Y-13514222D01*
X11748515Y-13514222D02*
X11738991Y-13495174D01*
X11738991Y-13495174D02*
X11719943Y-13485650D01*
X11719943Y-13485650D02*
X11681848Y-13485650D01*
X11681848Y-13485650D02*
X11662801Y-13495174D01*
X11748515Y-13609460D02*
X11729467Y-13618984D01*
X11729467Y-13618984D02*
X11681848Y-13618984D01*
X11681848Y-13618984D02*
X11662801Y-13609460D01*
X11662801Y-13609460D02*
X11653277Y-13590412D01*
X11653277Y-13590412D02*
X11653277Y-13571365D01*
X11653277Y-13571365D02*
X11662801Y-13552317D01*
X11662801Y-13552317D02*
X11681848Y-13542793D01*
X11681848Y-13542793D02*
X11729467Y-13542793D01*
X11729467Y-13542793D02*
X11748515Y-13533269D01*
X11843753Y-13485650D02*
X11843753Y-13685650D01*
X11843753Y-13495174D02*
X11862801Y-13485650D01*
X11862801Y-13485650D02*
X11900896Y-13485650D01*
X11900896Y-13485650D02*
X11919943Y-13495174D01*
X11919943Y-13495174D02*
X11929467Y-13504698D01*
X11929467Y-13504698D02*
X11938991Y-13523746D01*
X11938991Y-13523746D02*
X11938991Y-13580888D01*
X11938991Y-13580888D02*
X11929467Y-13599936D01*
X11929467Y-13599936D02*
X11919943Y-13609460D01*
X11919943Y-13609460D02*
X11900896Y-13618984D01*
X11900896Y-13618984D02*
X11862801Y-13618984D01*
X11862801Y-13618984D02*
X11843753Y-13609460D01*
X12024705Y-13599936D02*
X12034229Y-13609460D01*
X12034229Y-13609460D02*
X12024705Y-13618984D01*
X12024705Y-13618984D02*
X12015182Y-13609460D01*
X12015182Y-13609460D02*
X12024705Y-13599936D01*
X12024705Y-13599936D02*
X12024705Y-13618984D01*
X12024705Y-13495174D02*
X12034229Y-13504698D01*
X12034229Y-13504698D02*
X12024705Y-13514222D01*
X12024705Y-13514222D02*
X12015182Y-13504698D01*
X12015182Y-13504698D02*
X12024705Y-13495174D01*
X12024705Y-13495174D02*
X12024705Y-13514222D01*
D12*
X10352500Y-13927500D02*
X10392500Y-13967500D01*
X10392500Y-13927500D02*
X10352500Y-13967500D01*
D11*
X10691372Y-13838984D02*
X10710420Y-13838984D01*
X10710420Y-13838984D02*
X10729467Y-13848508D01*
X10729467Y-13848508D02*
X10738991Y-13858031D01*
X10738991Y-13858031D02*
X10748515Y-13877079D01*
X10748515Y-13877079D02*
X10758039Y-13915174D01*
X10758039Y-13915174D02*
X10758039Y-13962793D01*
X10758039Y-13962793D02*
X10748515Y-14000888D01*
X10748515Y-14000888D02*
X10738991Y-14019936D01*
X10738991Y-14019936D02*
X10729467Y-14029460D01*
X10729467Y-14029460D02*
X10710420Y-14038984D01*
X10710420Y-14038984D02*
X10691372Y-14038984D01*
X10691372Y-14038984D02*
X10672324Y-14029460D01*
X10672324Y-14029460D02*
X10662801Y-14019936D01*
X10662801Y-14019936D02*
X10653277Y-14000888D01*
X10653277Y-14000888D02*
X10643753Y-13962793D01*
X10643753Y-13962793D02*
X10643753Y-13915174D01*
X10643753Y-13915174D02*
X10653277Y-13877079D01*
X10653277Y-13877079D02*
X10662801Y-13858031D01*
X10662801Y-13858031D02*
X10672324Y-13848508D01*
X10672324Y-13848508D02*
X10691372Y-13838984D01*
X10843753Y-14019936D02*
X10853277Y-14029460D01*
X10853277Y-14029460D02*
X10843753Y-14038984D01*
X10843753Y-14038984D02*
X10834229Y-14029460D01*
X10834229Y-14029460D02*
X10843753Y-14019936D01*
X10843753Y-14019936D02*
X10843753Y-14038984D01*
X11024705Y-13905650D02*
X11024705Y-14038984D01*
X10977086Y-13829460D02*
X10929467Y-13972317D01*
X10929467Y-13972317D02*
X11053277Y-13972317D01*
X11167563Y-13838984D02*
X11186610Y-13838984D01*
X11186610Y-13838984D02*
X11205658Y-13848508D01*
X11205658Y-13848508D02*
X11215182Y-13858031D01*
X11215182Y-13858031D02*
X11224705Y-13877079D01*
X11224705Y-13877079D02*
X11234229Y-13915174D01*
X11234229Y-13915174D02*
X11234229Y-13962793D01*
X11234229Y-13962793D02*
X11224705Y-14000888D01*
X11224705Y-14000888D02*
X11215182Y-14019936D01*
X11215182Y-14019936D02*
X11205658Y-14029460D01*
X11205658Y-14029460D02*
X11186610Y-14038984D01*
X11186610Y-14038984D02*
X11167563Y-14038984D01*
X11167563Y-14038984D02*
X11148515Y-14029460D01*
X11148515Y-14029460D02*
X11138991Y-14019936D01*
X11138991Y-14019936D02*
X11129467Y-14000888D01*
X11129467Y-14000888D02*
X11119944Y-13962793D01*
X11119944Y-13962793D02*
X11119944Y-13915174D01*
X11119944Y-13915174D02*
X11129467Y-13877079D01*
X11129467Y-13877079D02*
X11138991Y-13858031D01*
X11138991Y-13858031D02*
X11148515Y-13848508D01*
X11148515Y-13848508D02*
X11167563Y-13838984D01*
X11358039Y-13838984D02*
X11377086Y-13838984D01*
X11377086Y-13838984D02*
X11396134Y-13848508D01*
X11396134Y-13848508D02*
X11405658Y-13858031D01*
X11405658Y-13858031D02*
X11415182Y-13877079D01*
X11415182Y-13877079D02*
X11424705Y-13915174D01*
X11424705Y-13915174D02*
X11424705Y-13962793D01*
X11424705Y-13962793D02*
X11415182Y-14000888D01*
X11415182Y-14000888D02*
X11405658Y-14019936D01*
X11405658Y-14019936D02*
X11396134Y-14029460D01*
X11396134Y-14029460D02*
X11377086Y-14038984D01*
X11377086Y-14038984D02*
X11358039Y-14038984D01*
X11358039Y-14038984D02*
X11338991Y-14029460D01*
X11338991Y-14029460D02*
X11329467Y-14019936D01*
X11329467Y-14019936D02*
X11319943Y-14000888D01*
X11319943Y-14000888D02*
X11310420Y-13962793D01*
X11310420Y-13962793D02*
X11310420Y-13915174D01*
X11310420Y-13915174D02*
X11319943Y-13877079D01*
X11319943Y-13877079D02*
X11329467Y-13858031D01*
X11329467Y-13858031D02*
X11338991Y-13848508D01*
X11338991Y-13848508D02*
X11358039Y-13838984D01*
X11510420Y-14038984D02*
X11510420Y-13905650D01*
X11510420Y-13924698D02*
X11519943Y-13915174D01*
X11519943Y-13915174D02*
X11538991Y-13905650D01*
X11538991Y-13905650D02*
X11567563Y-13905650D01*
X11567563Y-13905650D02*
X11586610Y-13915174D01*
X11586610Y-13915174D02*
X11596134Y-13934222D01*
X11596134Y-13934222D02*
X11596134Y-14038984D01*
X11596134Y-13934222D02*
X11605658Y-13915174D01*
X11605658Y-13915174D02*
X11624705Y-13905650D01*
X11624705Y-13905650D02*
X11653277Y-13905650D01*
X11653277Y-13905650D02*
X11672324Y-13915174D01*
X11672324Y-13915174D02*
X11681848Y-13934222D01*
X11681848Y-13934222D02*
X11681848Y-14038984D01*
X11777086Y-14038984D02*
X11777086Y-13905650D01*
X11777086Y-13924698D02*
X11786610Y-13915174D01*
X11786610Y-13915174D02*
X11805658Y-13905650D01*
X11805658Y-13905650D02*
X11834229Y-13905650D01*
X11834229Y-13905650D02*
X11853277Y-13915174D01*
X11853277Y-13915174D02*
X11862801Y-13934222D01*
X11862801Y-13934222D02*
X11862801Y-14038984D01*
X11862801Y-13934222D02*
X11872324Y-13915174D01*
X11872324Y-13915174D02*
X11891372Y-13905650D01*
X11891372Y-13905650D02*
X11919943Y-13905650D01*
X11919943Y-13905650D02*
X11938991Y-13915174D01*
X11938991Y-13915174D02*
X11948515Y-13934222D01*
X11948515Y-13934222D02*
X11948515Y-14038984D01*
X12338991Y-13829460D02*
X12167563Y-14086603D01*
X12596134Y-13838984D02*
X12615182Y-13838984D01*
X12615182Y-13838984D02*
X12634229Y-13848508D01*
X12634229Y-13848508D02*
X12643753Y-13858031D01*
X12643753Y-13858031D02*
X12653277Y-13877079D01*
X12653277Y-13877079D02*
X12662801Y-13915174D01*
X12662801Y-13915174D02*
X12662801Y-13962793D01*
X12662801Y-13962793D02*
X12653277Y-14000888D01*
X12653277Y-14000888D02*
X12643753Y-14019936D01*
X12643753Y-14019936D02*
X12634229Y-14029460D01*
X12634229Y-14029460D02*
X12615182Y-14038984D01*
X12615182Y-14038984D02*
X12596134Y-14038984D01*
X12596134Y-14038984D02*
X12577086Y-14029460D01*
X12577086Y-14029460D02*
X12567563Y-14019936D01*
X12567563Y-14019936D02*
X12558039Y-14000888D01*
X12558039Y-14000888D02*
X12548515Y-13962793D01*
X12548515Y-13962793D02*
X12548515Y-13915174D01*
X12548515Y-13915174D02*
X12558039Y-13877079D01*
X12558039Y-13877079D02*
X12567563Y-13858031D01*
X12567563Y-13858031D02*
X12577086Y-13848508D01*
X12577086Y-13848508D02*
X12596134Y-13838984D01*
X12748515Y-14019936D02*
X12758039Y-14029460D01*
X12758039Y-14029460D02*
X12748515Y-14038984D01*
X12748515Y-14038984D02*
X12738991Y-14029460D01*
X12738991Y-14029460D02*
X12748515Y-14019936D01*
X12748515Y-14019936D02*
X12748515Y-14038984D01*
X12881848Y-13838984D02*
X12900896Y-13838984D01*
X12900896Y-13838984D02*
X12919944Y-13848508D01*
X12919944Y-13848508D02*
X12929467Y-13858031D01*
X12929467Y-13858031D02*
X12938991Y-13877079D01*
X12938991Y-13877079D02*
X12948515Y-13915174D01*
X12948515Y-13915174D02*
X12948515Y-13962793D01*
X12948515Y-13962793D02*
X12938991Y-14000888D01*
X12938991Y-14000888D02*
X12929467Y-14019936D01*
X12929467Y-14019936D02*
X12919944Y-14029460D01*
X12919944Y-14029460D02*
X12900896Y-14038984D01*
X12900896Y-14038984D02*
X12881848Y-14038984D01*
X12881848Y-14038984D02*
X12862801Y-14029460D01*
X12862801Y-14029460D02*
X12853277Y-14019936D01*
X12853277Y-14019936D02*
X12843753Y-14000888D01*
X12843753Y-14000888D02*
X12834229Y-13962793D01*
X12834229Y-13962793D02*
X12834229Y-13915174D01*
X12834229Y-13915174D02*
X12843753Y-13877079D01*
X12843753Y-13877079D02*
X12853277Y-13858031D01*
X12853277Y-13858031D02*
X12862801Y-13848508D01*
X12862801Y-13848508D02*
X12881848Y-13838984D01*
X13138991Y-14038984D02*
X13024706Y-14038984D01*
X13081848Y-14038984D02*
X13081848Y-13838984D01*
X13081848Y-13838984D02*
X13062801Y-13867555D01*
X13062801Y-13867555D02*
X13043753Y-13886603D01*
X13043753Y-13886603D02*
X13024706Y-13896127D01*
X13319944Y-13838984D02*
X13224706Y-13838984D01*
X13224706Y-13838984D02*
X13215182Y-13934222D01*
X13215182Y-13934222D02*
X13224706Y-13924698D01*
X13224706Y-13924698D02*
X13243753Y-13915174D01*
X13243753Y-13915174D02*
X13291372Y-13915174D01*
X13291372Y-13915174D02*
X13310420Y-13924698D01*
X13310420Y-13924698D02*
X13319944Y-13934222D01*
X13319944Y-13934222D02*
X13329467Y-13953269D01*
X13329467Y-13953269D02*
X13329467Y-14000888D01*
X13329467Y-14000888D02*
X13319944Y-14019936D01*
X13319944Y-14019936D02*
X13310420Y-14029460D01*
X13310420Y-14029460D02*
X13291372Y-14038984D01*
X13291372Y-14038984D02*
X13243753Y-14038984D01*
X13243753Y-14038984D02*
X13224706Y-14029460D01*
X13224706Y-14029460D02*
X13215182Y-14019936D01*
X13396134Y-13838984D02*
X13529467Y-13838984D01*
X13529467Y-13838984D02*
X13443753Y-14038984D01*
X13596134Y-13838984D02*
X13596134Y-13877079D01*
X13672325Y-13838984D02*
X13672325Y-13877079D01*
X13967563Y-14115174D02*
X13958039Y-14105650D01*
X13958039Y-14105650D02*
X13938991Y-14077079D01*
X13938991Y-14077079D02*
X13929468Y-14058031D01*
X13929468Y-14058031D02*
X13919944Y-14029460D01*
X13919944Y-14029460D02*
X13910420Y-13981841D01*
X13910420Y-13981841D02*
X13910420Y-13943746D01*
X13910420Y-13943746D02*
X13919944Y-13896127D01*
X13919944Y-13896127D02*
X13929468Y-13867555D01*
X13929468Y-13867555D02*
X13938991Y-13848508D01*
X13938991Y-13848508D02*
X13958039Y-13819936D01*
X13958039Y-13819936D02*
X13967563Y-13810412D01*
X14034229Y-13858031D02*
X14043753Y-13848508D01*
X14043753Y-13848508D02*
X14062801Y-13838984D01*
X14062801Y-13838984D02*
X14110420Y-13838984D01*
X14110420Y-13838984D02*
X14129468Y-13848508D01*
X14129468Y-13848508D02*
X14138991Y-13858031D01*
X14138991Y-13858031D02*
X14148515Y-13877079D01*
X14148515Y-13877079D02*
X14148515Y-13896127D01*
X14148515Y-13896127D02*
X14138991Y-13924698D01*
X14138991Y-13924698D02*
X14024706Y-14038984D01*
X14024706Y-14038984D02*
X14148515Y-14038984D01*
X14215182Y-13838984D02*
X14348515Y-13838984D01*
X14348515Y-13838984D02*
X14262801Y-14038984D01*
X14577087Y-14038984D02*
X14577087Y-13838984D01*
X14662801Y-14038984D02*
X14662801Y-13934222D01*
X14662801Y-13934222D02*
X14653277Y-13915174D01*
X14653277Y-13915174D02*
X14634230Y-13905650D01*
X14634230Y-13905650D02*
X14605658Y-13905650D01*
X14605658Y-13905650D02*
X14586610Y-13915174D01*
X14586610Y-13915174D02*
X14577087Y-13924698D01*
X14786610Y-14038984D02*
X14767563Y-14029460D01*
X14767563Y-14029460D02*
X14758039Y-14019936D01*
X14758039Y-14019936D02*
X14748515Y-14000888D01*
X14748515Y-14000888D02*
X14748515Y-13943746D01*
X14748515Y-13943746D02*
X14758039Y-13924698D01*
X14758039Y-13924698D02*
X14767563Y-13915174D01*
X14767563Y-13915174D02*
X14786610Y-13905650D01*
X14786610Y-13905650D02*
X14815182Y-13905650D01*
X14815182Y-13905650D02*
X14834230Y-13915174D01*
X14834230Y-13915174D02*
X14843753Y-13924698D01*
X14843753Y-13924698D02*
X14853277Y-13943746D01*
X14853277Y-13943746D02*
X14853277Y-14000888D01*
X14853277Y-14000888D02*
X14843753Y-14019936D01*
X14843753Y-14019936D02*
X14834230Y-14029460D01*
X14834230Y-14029460D02*
X14815182Y-14038984D01*
X14815182Y-14038984D02*
X14786610Y-14038984D01*
X14967563Y-14038984D02*
X14948515Y-14029460D01*
X14948515Y-14029460D02*
X14938991Y-14010412D01*
X14938991Y-14010412D02*
X14938991Y-13838984D01*
X15119944Y-14029460D02*
X15100896Y-14038984D01*
X15100896Y-14038984D02*
X15062801Y-14038984D01*
X15062801Y-14038984D02*
X15043753Y-14029460D01*
X15043753Y-14029460D02*
X15034230Y-14010412D01*
X15034230Y-14010412D02*
X15034230Y-13934222D01*
X15034230Y-13934222D02*
X15043753Y-13915174D01*
X15043753Y-13915174D02*
X15062801Y-13905650D01*
X15062801Y-13905650D02*
X15100896Y-13905650D01*
X15100896Y-13905650D02*
X15119944Y-13915174D01*
X15119944Y-13915174D02*
X15129468Y-13934222D01*
X15129468Y-13934222D02*
X15129468Y-13953269D01*
X15129468Y-13953269D02*
X15034230Y-13972317D01*
X15205658Y-14029460D02*
X15224706Y-14038984D01*
X15224706Y-14038984D02*
X15262801Y-14038984D01*
X15262801Y-14038984D02*
X15281849Y-14029460D01*
X15281849Y-14029460D02*
X15291372Y-14010412D01*
X15291372Y-14010412D02*
X15291372Y-14000888D01*
X15291372Y-14000888D02*
X15281849Y-13981841D01*
X15281849Y-13981841D02*
X15262801Y-13972317D01*
X15262801Y-13972317D02*
X15234230Y-13972317D01*
X15234230Y-13972317D02*
X15215182Y-13962793D01*
X15215182Y-13962793D02*
X15205658Y-13943746D01*
X15205658Y-13943746D02*
X15205658Y-13934222D01*
X15205658Y-13934222D02*
X15215182Y-13915174D01*
X15215182Y-13915174D02*
X15234230Y-13905650D01*
X15234230Y-13905650D02*
X15262801Y-13905650D01*
X15262801Y-13905650D02*
X15281849Y-13915174D01*
X15358039Y-14115174D02*
X15367563Y-14105650D01*
X15367563Y-14105650D02*
X15386611Y-14077079D01*
X15386611Y-14077079D02*
X15396134Y-14058031D01*
X15396134Y-14058031D02*
X15405658Y-14029460D01*
X15405658Y-14029460D02*
X15415182Y-13981841D01*
X15415182Y-13981841D02*
X15415182Y-13943746D01*
X15415182Y-13943746D02*
X15405658Y-13896127D01*
X15405658Y-13896127D02*
X15396134Y-13867555D01*
X15396134Y-13867555D02*
X15386611Y-13848508D01*
X15386611Y-13848508D02*
X15367563Y-13819936D01*
X15367563Y-13819936D02*
X15358039Y-13810412D01*
D13*
X10392500Y-14211500D02*
G75*
G03*
X10392500Y-14211500I-50000J0D01*
G01*
D11*
X10758039Y-14302984D02*
X10643753Y-14302984D01*
X10700896Y-14302984D02*
X10700896Y-14102984D01*
X10700896Y-14102984D02*
X10681848Y-14131555D01*
X10681848Y-14131555D02*
X10662801Y-14150603D01*
X10662801Y-14150603D02*
X10643753Y-14160127D01*
X10843753Y-14283936D02*
X10853277Y-14293460D01*
X10853277Y-14293460D02*
X10843753Y-14302984D01*
X10843753Y-14302984D02*
X10834229Y-14293460D01*
X10834229Y-14293460D02*
X10843753Y-14283936D01*
X10843753Y-14283936D02*
X10843753Y-14302984D01*
X10977086Y-14102984D02*
X10996134Y-14102984D01*
X10996134Y-14102984D02*
X11015182Y-14112508D01*
X11015182Y-14112508D02*
X11024705Y-14122031D01*
X11024705Y-14122031D02*
X11034229Y-14141079D01*
X11034229Y-14141079D02*
X11043753Y-14179174D01*
X11043753Y-14179174D02*
X11043753Y-14226793D01*
X11043753Y-14226793D02*
X11034229Y-14264888D01*
X11034229Y-14264888D02*
X11024705Y-14283936D01*
X11024705Y-14283936D02*
X11015182Y-14293460D01*
X11015182Y-14293460D02*
X10996134Y-14302984D01*
X10996134Y-14302984D02*
X10977086Y-14302984D01*
X10977086Y-14302984D02*
X10958039Y-14293460D01*
X10958039Y-14293460D02*
X10948515Y-14283936D01*
X10948515Y-14283936D02*
X10938991Y-14264888D01*
X10938991Y-14264888D02*
X10929467Y-14226793D01*
X10929467Y-14226793D02*
X10929467Y-14179174D01*
X10929467Y-14179174D02*
X10938991Y-14141079D01*
X10938991Y-14141079D02*
X10948515Y-14122031D01*
X10948515Y-14122031D02*
X10958039Y-14112508D01*
X10958039Y-14112508D02*
X10977086Y-14102984D01*
X11167563Y-14102984D02*
X11186610Y-14102984D01*
X11186610Y-14102984D02*
X11205658Y-14112508D01*
X11205658Y-14112508D02*
X11215182Y-14122031D01*
X11215182Y-14122031D02*
X11224705Y-14141079D01*
X11224705Y-14141079D02*
X11234229Y-14179174D01*
X11234229Y-14179174D02*
X11234229Y-14226793D01*
X11234229Y-14226793D02*
X11224705Y-14264888D01*
X11224705Y-14264888D02*
X11215182Y-14283936D01*
X11215182Y-14283936D02*
X11205658Y-14293460D01*
X11205658Y-14293460D02*
X11186610Y-14302984D01*
X11186610Y-14302984D02*
X11167563Y-14302984D01*
X11167563Y-14302984D02*
X11148515Y-14293460D01*
X11148515Y-14293460D02*
X11138991Y-14283936D01*
X11138991Y-14283936D02*
X11129467Y-14264888D01*
X11129467Y-14264888D02*
X11119944Y-14226793D01*
X11119944Y-14226793D02*
X11119944Y-14179174D01*
X11119944Y-14179174D02*
X11129467Y-14141079D01*
X11129467Y-14141079D02*
X11138991Y-14122031D01*
X11138991Y-14122031D02*
X11148515Y-14112508D01*
X11148515Y-14112508D02*
X11167563Y-14102984D01*
X11358039Y-14102984D02*
X11377086Y-14102984D01*
X11377086Y-14102984D02*
X11396134Y-14112508D01*
X11396134Y-14112508D02*
X11405658Y-14122031D01*
X11405658Y-14122031D02*
X11415182Y-14141079D01*
X11415182Y-14141079D02*
X11424705Y-14179174D01*
X11424705Y-14179174D02*
X11424705Y-14226793D01*
X11424705Y-14226793D02*
X11415182Y-14264888D01*
X11415182Y-14264888D02*
X11405658Y-14283936D01*
X11405658Y-14283936D02*
X11396134Y-14293460D01*
X11396134Y-14293460D02*
X11377086Y-14302984D01*
X11377086Y-14302984D02*
X11358039Y-14302984D01*
X11358039Y-14302984D02*
X11338991Y-14293460D01*
X11338991Y-14293460D02*
X11329467Y-14283936D01*
X11329467Y-14283936D02*
X11319943Y-14264888D01*
X11319943Y-14264888D02*
X11310420Y-14226793D01*
X11310420Y-14226793D02*
X11310420Y-14179174D01*
X11310420Y-14179174D02*
X11319943Y-14141079D01*
X11319943Y-14141079D02*
X11329467Y-14122031D01*
X11329467Y-14122031D02*
X11338991Y-14112508D01*
X11338991Y-14112508D02*
X11358039Y-14102984D01*
X11510420Y-14302984D02*
X11510420Y-14169650D01*
X11510420Y-14188698D02*
X11519943Y-14179174D01*
X11519943Y-14179174D02*
X11538991Y-14169650D01*
X11538991Y-14169650D02*
X11567563Y-14169650D01*
X11567563Y-14169650D02*
X11586610Y-14179174D01*
X11586610Y-14179174D02*
X11596134Y-14198222D01*
X11596134Y-14198222D02*
X11596134Y-14302984D01*
X11596134Y-14198222D02*
X11605658Y-14179174D01*
X11605658Y-14179174D02*
X11624705Y-14169650D01*
X11624705Y-14169650D02*
X11653277Y-14169650D01*
X11653277Y-14169650D02*
X11672324Y-14179174D01*
X11672324Y-14179174D02*
X11681848Y-14198222D01*
X11681848Y-14198222D02*
X11681848Y-14302984D01*
X11777086Y-14302984D02*
X11777086Y-14169650D01*
X11777086Y-14188698D02*
X11786610Y-14179174D01*
X11786610Y-14179174D02*
X11805658Y-14169650D01*
X11805658Y-14169650D02*
X11834229Y-14169650D01*
X11834229Y-14169650D02*
X11853277Y-14179174D01*
X11853277Y-14179174D02*
X11862801Y-14198222D01*
X11862801Y-14198222D02*
X11862801Y-14302984D01*
X11862801Y-14198222D02*
X11872324Y-14179174D01*
X11872324Y-14179174D02*
X11891372Y-14169650D01*
X11891372Y-14169650D02*
X11919943Y-14169650D01*
X11919943Y-14169650D02*
X11938991Y-14179174D01*
X11938991Y-14179174D02*
X11948515Y-14198222D01*
X11948515Y-14198222D02*
X11948515Y-14302984D01*
X12338991Y-14093460D02*
X12167563Y-14350603D01*
X12596134Y-14102984D02*
X12615182Y-14102984D01*
X12615182Y-14102984D02*
X12634229Y-14112508D01*
X12634229Y-14112508D02*
X12643753Y-14122031D01*
X12643753Y-14122031D02*
X12653277Y-14141079D01*
X12653277Y-14141079D02*
X12662801Y-14179174D01*
X12662801Y-14179174D02*
X12662801Y-14226793D01*
X12662801Y-14226793D02*
X12653277Y-14264888D01*
X12653277Y-14264888D02*
X12643753Y-14283936D01*
X12643753Y-14283936D02*
X12634229Y-14293460D01*
X12634229Y-14293460D02*
X12615182Y-14302984D01*
X12615182Y-14302984D02*
X12596134Y-14302984D01*
X12596134Y-14302984D02*
X12577086Y-14293460D01*
X12577086Y-14293460D02*
X12567563Y-14283936D01*
X12567563Y-14283936D02*
X12558039Y-14264888D01*
X12558039Y-14264888D02*
X12548515Y-14226793D01*
X12548515Y-14226793D02*
X12548515Y-14179174D01*
X12548515Y-14179174D02*
X12558039Y-14141079D01*
X12558039Y-14141079D02*
X12567563Y-14122031D01*
X12567563Y-14122031D02*
X12577086Y-14112508D01*
X12577086Y-14112508D02*
X12596134Y-14102984D01*
X12748515Y-14283936D02*
X12758039Y-14293460D01*
X12758039Y-14293460D02*
X12748515Y-14302984D01*
X12748515Y-14302984D02*
X12738991Y-14293460D01*
X12738991Y-14293460D02*
X12748515Y-14283936D01*
X12748515Y-14283936D02*
X12748515Y-14302984D01*
X12881848Y-14102984D02*
X12900896Y-14102984D01*
X12900896Y-14102984D02*
X12919944Y-14112508D01*
X12919944Y-14112508D02*
X12929467Y-14122031D01*
X12929467Y-14122031D02*
X12938991Y-14141079D01*
X12938991Y-14141079D02*
X12948515Y-14179174D01*
X12948515Y-14179174D02*
X12948515Y-14226793D01*
X12948515Y-14226793D02*
X12938991Y-14264888D01*
X12938991Y-14264888D02*
X12929467Y-14283936D01*
X12929467Y-14283936D02*
X12919944Y-14293460D01*
X12919944Y-14293460D02*
X12900896Y-14302984D01*
X12900896Y-14302984D02*
X12881848Y-14302984D01*
X12881848Y-14302984D02*
X12862801Y-14293460D01*
X12862801Y-14293460D02*
X12853277Y-14283936D01*
X12853277Y-14283936D02*
X12843753Y-14264888D01*
X12843753Y-14264888D02*
X12834229Y-14226793D01*
X12834229Y-14226793D02*
X12834229Y-14179174D01*
X12834229Y-14179174D02*
X12843753Y-14141079D01*
X12843753Y-14141079D02*
X12853277Y-14122031D01*
X12853277Y-14122031D02*
X12862801Y-14112508D01*
X12862801Y-14112508D02*
X12881848Y-14102984D01*
X13015182Y-14102984D02*
X13138991Y-14102984D01*
X13138991Y-14102984D02*
X13072325Y-14179174D01*
X13072325Y-14179174D02*
X13100896Y-14179174D01*
X13100896Y-14179174D02*
X13119944Y-14188698D01*
X13119944Y-14188698D02*
X13129467Y-14198222D01*
X13129467Y-14198222D02*
X13138991Y-14217269D01*
X13138991Y-14217269D02*
X13138991Y-14264888D01*
X13138991Y-14264888D02*
X13129467Y-14283936D01*
X13129467Y-14283936D02*
X13119944Y-14293460D01*
X13119944Y-14293460D02*
X13100896Y-14302984D01*
X13100896Y-14302984D02*
X13043753Y-14302984D01*
X13043753Y-14302984D02*
X13024706Y-14293460D01*
X13024706Y-14293460D02*
X13015182Y-14283936D01*
X13234229Y-14302984D02*
X13272325Y-14302984D01*
X13272325Y-14302984D02*
X13291372Y-14293460D01*
X13291372Y-14293460D02*
X13300896Y-14283936D01*
X13300896Y-14283936D02*
X13319944Y-14255365D01*
X13319944Y-14255365D02*
X13329467Y-14217269D01*
X13329467Y-14217269D02*
X13329467Y-14141079D01*
X13329467Y-14141079D02*
X13319944Y-14122031D01*
X13319944Y-14122031D02*
X13310420Y-14112508D01*
X13310420Y-14112508D02*
X13291372Y-14102984D01*
X13291372Y-14102984D02*
X13253277Y-14102984D01*
X13253277Y-14102984D02*
X13234229Y-14112508D01*
X13234229Y-14112508D02*
X13224706Y-14122031D01*
X13224706Y-14122031D02*
X13215182Y-14141079D01*
X13215182Y-14141079D02*
X13215182Y-14188698D01*
X13215182Y-14188698D02*
X13224706Y-14207746D01*
X13224706Y-14207746D02*
X13234229Y-14217269D01*
X13234229Y-14217269D02*
X13253277Y-14226793D01*
X13253277Y-14226793D02*
X13291372Y-14226793D01*
X13291372Y-14226793D02*
X13310420Y-14217269D01*
X13310420Y-14217269D02*
X13319944Y-14207746D01*
X13319944Y-14207746D02*
X13329467Y-14188698D01*
X13500896Y-14169650D02*
X13500896Y-14302984D01*
X13453277Y-14093460D02*
X13405658Y-14236317D01*
X13405658Y-14236317D02*
X13529467Y-14236317D01*
X13596134Y-14102984D02*
X13596134Y-14141079D01*
X13672325Y-14102984D02*
X13672325Y-14141079D01*
X13967563Y-14379174D02*
X13958039Y-14369650D01*
X13958039Y-14369650D02*
X13938991Y-14341079D01*
X13938991Y-14341079D02*
X13929468Y-14322031D01*
X13929468Y-14322031D02*
X13919944Y-14293460D01*
X13919944Y-14293460D02*
X13910420Y-14245841D01*
X13910420Y-14245841D02*
X13910420Y-14207746D01*
X13910420Y-14207746D02*
X13919944Y-14160127D01*
X13919944Y-14160127D02*
X13929468Y-14131555D01*
X13929468Y-14131555D02*
X13938991Y-14112508D01*
X13938991Y-14112508D02*
X13958039Y-14083936D01*
X13958039Y-14083936D02*
X13967563Y-14074412D01*
X14148515Y-14302984D02*
X14034229Y-14302984D01*
X14091372Y-14302984D02*
X14091372Y-14102984D01*
X14091372Y-14102984D02*
X14072325Y-14131555D01*
X14072325Y-14131555D02*
X14053277Y-14150603D01*
X14053277Y-14150603D02*
X14034229Y-14160127D01*
X14262801Y-14188698D02*
X14243753Y-14179174D01*
X14243753Y-14179174D02*
X14234229Y-14169650D01*
X14234229Y-14169650D02*
X14224706Y-14150603D01*
X14224706Y-14150603D02*
X14224706Y-14141079D01*
X14224706Y-14141079D02*
X14234229Y-14122031D01*
X14234229Y-14122031D02*
X14243753Y-14112508D01*
X14243753Y-14112508D02*
X14262801Y-14102984D01*
X14262801Y-14102984D02*
X14300896Y-14102984D01*
X14300896Y-14102984D02*
X14319944Y-14112508D01*
X14319944Y-14112508D02*
X14329468Y-14122031D01*
X14329468Y-14122031D02*
X14338991Y-14141079D01*
X14338991Y-14141079D02*
X14338991Y-14150603D01*
X14338991Y-14150603D02*
X14329468Y-14169650D01*
X14329468Y-14169650D02*
X14319944Y-14179174D01*
X14319944Y-14179174D02*
X14300896Y-14188698D01*
X14300896Y-14188698D02*
X14262801Y-14188698D01*
X14262801Y-14188698D02*
X14243753Y-14198222D01*
X14243753Y-14198222D02*
X14234229Y-14207746D01*
X14234229Y-14207746D02*
X14224706Y-14226793D01*
X14224706Y-14226793D02*
X14224706Y-14264888D01*
X14224706Y-14264888D02*
X14234229Y-14283936D01*
X14234229Y-14283936D02*
X14243753Y-14293460D01*
X14243753Y-14293460D02*
X14262801Y-14302984D01*
X14262801Y-14302984D02*
X14300896Y-14302984D01*
X14300896Y-14302984D02*
X14319944Y-14293460D01*
X14319944Y-14293460D02*
X14329468Y-14283936D01*
X14329468Y-14283936D02*
X14338991Y-14264888D01*
X14338991Y-14264888D02*
X14338991Y-14226793D01*
X14338991Y-14226793D02*
X14329468Y-14207746D01*
X14329468Y-14207746D02*
X14319944Y-14198222D01*
X14319944Y-14198222D02*
X14300896Y-14188698D01*
X14577087Y-14302984D02*
X14577087Y-14102984D01*
X14662801Y-14302984D02*
X14662801Y-14198222D01*
X14662801Y-14198222D02*
X14653277Y-14179174D01*
X14653277Y-14179174D02*
X14634230Y-14169650D01*
X14634230Y-14169650D02*
X14605658Y-14169650D01*
X14605658Y-14169650D02*
X14586610Y-14179174D01*
X14586610Y-14179174D02*
X14577087Y-14188698D01*
X14786610Y-14302984D02*
X14767563Y-14293460D01*
X14767563Y-14293460D02*
X14758039Y-14283936D01*
X14758039Y-14283936D02*
X14748515Y-14264888D01*
X14748515Y-14264888D02*
X14748515Y-14207746D01*
X14748515Y-14207746D02*
X14758039Y-14188698D01*
X14758039Y-14188698D02*
X14767563Y-14179174D01*
X14767563Y-14179174D02*
X14786610Y-14169650D01*
X14786610Y-14169650D02*
X14815182Y-14169650D01*
X14815182Y-14169650D02*
X14834230Y-14179174D01*
X14834230Y-14179174D02*
X14843753Y-14188698D01*
X14843753Y-14188698D02*
X14853277Y-14207746D01*
X14853277Y-14207746D02*
X14853277Y-14264888D01*
X14853277Y-14264888D02*
X14843753Y-14283936D01*
X14843753Y-14283936D02*
X14834230Y-14293460D01*
X14834230Y-14293460D02*
X14815182Y-14302984D01*
X14815182Y-14302984D02*
X14786610Y-14302984D01*
X14967563Y-14302984D02*
X14948515Y-14293460D01*
X14948515Y-14293460D02*
X14938991Y-14274412D01*
X14938991Y-14274412D02*
X14938991Y-14102984D01*
X15119944Y-14293460D02*
X15100896Y-14302984D01*
X15100896Y-14302984D02*
X15062801Y-14302984D01*
X15062801Y-14302984D02*
X15043753Y-14293460D01*
X15043753Y-14293460D02*
X15034230Y-14274412D01*
X15034230Y-14274412D02*
X15034230Y-14198222D01*
X15034230Y-14198222D02*
X15043753Y-14179174D01*
X15043753Y-14179174D02*
X15062801Y-14169650D01*
X15062801Y-14169650D02*
X15100896Y-14169650D01*
X15100896Y-14169650D02*
X15119944Y-14179174D01*
X15119944Y-14179174D02*
X15129468Y-14198222D01*
X15129468Y-14198222D02*
X15129468Y-14217269D01*
X15129468Y-14217269D02*
X15034230Y-14236317D01*
X15205658Y-14293460D02*
X15224706Y-14302984D01*
X15224706Y-14302984D02*
X15262801Y-14302984D01*
X15262801Y-14302984D02*
X15281849Y-14293460D01*
X15281849Y-14293460D02*
X15291372Y-14274412D01*
X15291372Y-14274412D02*
X15291372Y-14264888D01*
X15291372Y-14264888D02*
X15281849Y-14245841D01*
X15281849Y-14245841D02*
X15262801Y-14236317D01*
X15262801Y-14236317D02*
X15234230Y-14236317D01*
X15234230Y-14236317D02*
X15215182Y-14226793D01*
X15215182Y-14226793D02*
X15205658Y-14207746D01*
X15205658Y-14207746D02*
X15205658Y-14198222D01*
X15205658Y-14198222D02*
X15215182Y-14179174D01*
X15215182Y-14179174D02*
X15234230Y-14169650D01*
X15234230Y-14169650D02*
X15262801Y-14169650D01*
X15262801Y-14169650D02*
X15281849Y-14179174D01*
X15358039Y-14379174D02*
X15367563Y-14369650D01*
X15367563Y-14369650D02*
X15386611Y-14341079D01*
X15386611Y-14341079D02*
X15396134Y-14322031D01*
X15396134Y-14322031D02*
X15405658Y-14293460D01*
X15405658Y-14293460D02*
X15415182Y-14245841D01*
X15415182Y-14245841D02*
X15415182Y-14207746D01*
X15415182Y-14207746D02*
X15405658Y-14160127D01*
X15405658Y-14160127D02*
X15396134Y-14131555D01*
X15396134Y-14131555D02*
X15386611Y-14112508D01*
X15386611Y-14112508D02*
X15367563Y-14083936D01*
X15367563Y-14083936D02*
X15358039Y-14074412D01*
M02*
