G04 #@! TF.GenerationSoftware,KiCad,Pcbnew,7.0.5-0*
G04 #@! TF.CreationDate,2024-01-10T22:08:28+09:00*
G04 #@! TF.ProjectId,Misawa_DistanceSensor,4d697361-7761-45f4-9469-7374616e6365,v0.3*
G04 #@! TF.SameCoordinates,Original*
G04 #@! TF.FileFunction,Copper,L2,Bot*
G04 #@! TF.FilePolarity,Positive*
%FSLAX46Y46*%
G04 Gerber Fmt 4.6, Leading zero omitted, Abs format (unit mm)*
G04 Created by KiCad (PCBNEW 7.0.5-0) date 2024-01-10 22:08:28*
%MOMM*%
%LPD*%
G01*
G04 APERTURE LIST*
G04 Aperture macros list*
%AMRoundRect*
0 Rectangle with rounded corners*
0 $1 Rounding radius*
0 $2 $3 $4 $5 $6 $7 $8 $9 X,Y pos of 4 corners*
0 Add a 4 corners polygon primitive as box body*
4,1,4,$2,$3,$4,$5,$6,$7,$8,$9,$2,$3,0*
0 Add four circle primitives for the rounded corners*
1,1,$1+$1,$2,$3*
1,1,$1+$1,$4,$5*
1,1,$1+$1,$6,$7*
1,1,$1+$1,$8,$9*
0 Add four rect primitives between the rounded corners*
20,1,$1+$1,$2,$3,$4,$5,0*
20,1,$1+$1,$4,$5,$6,$7,0*
20,1,$1+$1,$6,$7,$8,$9,0*
20,1,$1+$1,$8,$9,$2,$3,0*%
G04 Aperture macros list end*
G04 #@! TA.AperFunction,ComponentPad*
%ADD10R,1.700000X1.700000*%
G04 #@! TD*
G04 #@! TA.AperFunction,ComponentPad*
%ADD11O,1.700000X1.700000*%
G04 #@! TD*
G04 #@! TA.AperFunction,SMDPad,CuDef*
%ADD12RoundRect,0.200000X-0.200000X-0.275000X0.200000X-0.275000X0.200000X0.275000X-0.200000X0.275000X0*%
G04 #@! TD*
G04 #@! TA.AperFunction,SMDPad,CuDef*
%ADD13R,1.000000X1.500000*%
G04 #@! TD*
G04 #@! TA.AperFunction,SMDPad,CuDef*
%ADD14RoundRect,0.225000X-0.225000X-0.250000X0.225000X-0.250000X0.225000X0.250000X-0.225000X0.250000X0*%
G04 #@! TD*
G04 #@! TA.AperFunction,SMDPad,CuDef*
%ADD15RoundRect,0.250000X-1.000000X-0.650000X1.000000X-0.650000X1.000000X0.650000X-1.000000X0.650000X0*%
G04 #@! TD*
G04 #@! TA.AperFunction,SMDPad,CuDef*
%ADD16RoundRect,0.200000X0.200000X0.275000X-0.200000X0.275000X-0.200000X-0.275000X0.200000X-0.275000X0*%
G04 #@! TD*
G04 #@! TA.AperFunction,SMDPad,CuDef*
%ADD17RoundRect,0.200000X-0.275000X0.200000X-0.275000X-0.200000X0.275000X-0.200000X0.275000X0.200000X0*%
G04 #@! TD*
G04 #@! TA.AperFunction,SMDPad,CuDef*
%ADD18RoundRect,0.150000X0.587500X0.150000X-0.587500X0.150000X-0.587500X-0.150000X0.587500X-0.150000X0*%
G04 #@! TD*
G04 #@! TA.AperFunction,SMDPad,CuDef*
%ADD19R,1.250000X3.050000*%
G04 #@! TD*
G04 #@! TA.AperFunction,ViaPad*
%ADD20C,0.600000*%
G04 #@! TD*
G04 #@! TA.AperFunction,Conductor*
%ADD21C,0.500000*%
G04 #@! TD*
G04 #@! TA.AperFunction,Conductor*
%ADD22C,0.250000*%
G04 #@! TD*
G04 #@! TA.AperFunction,Conductor*
%ADD23C,0.400000*%
G04 #@! TD*
G04 APERTURE END LIST*
D10*
X124320000Y-119030000D03*
D11*
X124320000Y-116490000D03*
X124320000Y-113950000D03*
X124320000Y-111410000D03*
X124320000Y-108870000D03*
X124320000Y-106330000D03*
X124320000Y-103790000D03*
X109080000Y-103790000D03*
X109080000Y-106330000D03*
X109080000Y-108870000D03*
X109080000Y-111410000D03*
X109080000Y-113950000D03*
X109080000Y-116490000D03*
X109080000Y-119030000D03*
D12*
X120193000Y-114458000D03*
X121843000Y-114458000D03*
X120193000Y-112934000D03*
X121843000Y-112934000D03*
D13*
X113286000Y-112426000D03*
X111986000Y-112426000D03*
D12*
X116256000Y-115347000D03*
X117906000Y-115347000D03*
D14*
X116293000Y-116871000D03*
X117843000Y-116871000D03*
D13*
X113286000Y-117506000D03*
X111986000Y-117506000D03*
X113286000Y-114966000D03*
X111986000Y-114966000D03*
D15*
X112668000Y-109251000D03*
X116668000Y-109251000D03*
D16*
X121843000Y-111410000D03*
X120193000Y-111410000D03*
D17*
X126352000Y-113887000D03*
X126352000Y-115537000D03*
D18*
X118272500Y-111857000D03*
X118272500Y-113757000D03*
X116397500Y-112807000D03*
D13*
X106809000Y-116744000D03*
X105509000Y-116744000D03*
X106824000Y-119792000D03*
X105524000Y-119792000D03*
X121922000Y-109124000D03*
X120622000Y-109124000D03*
D10*
X112850000Y-105650000D03*
D11*
X115390000Y-105650000D03*
X117930000Y-105650000D03*
X120470000Y-105650000D03*
D19*
X117575000Y-130457000D03*
X115825000Y-130457000D03*
D20*
X126352000Y-118014000D03*
X128130000Y-113950000D03*
X128130000Y-122840000D03*
X105270000Y-108870000D03*
X128130000Y-101250000D03*
X105270000Y-105060000D03*
X105397000Y-114331000D03*
X120764000Y-116871000D03*
X110350000Y-130460000D03*
X128130000Y-105060000D03*
X128130000Y-117760000D03*
X114414000Y-130457000D03*
X128130000Y-108870000D03*
X105270000Y-122840000D03*
X123050000Y-130460000D03*
X105397000Y-118268000D03*
X106413000Y-111918000D03*
X123050000Y-126650000D03*
X110350000Y-126650000D03*
X105270000Y-101250000D03*
X114922000Y-116363000D03*
X115347500Y-111156000D03*
X119240000Y-109632000D03*
X119240000Y-115347000D03*
X114668000Y-115474000D03*
X114668000Y-107219000D03*
X118510500Y-110394000D03*
D21*
X105524000Y-119792000D02*
X105524000Y-122586000D01*
X105509000Y-116744000D02*
X105509000Y-118156000D01*
X105509000Y-118156000D02*
X105397000Y-118268000D01*
X117906000Y-115347000D02*
X117906000Y-116808000D01*
D22*
X126352000Y-115537000D02*
X126352000Y-118014000D01*
D21*
X117843000Y-116871000D02*
X120764000Y-116871000D01*
X117906000Y-116808000D02*
X117843000Y-116871000D01*
X105524000Y-122586000D02*
X105270000Y-122840000D01*
X115825000Y-130457000D02*
X114414000Y-130457000D01*
X114922000Y-116363000D02*
X115240000Y-116363000D01*
X116293000Y-116871000D02*
X117575000Y-118153000D01*
X116256000Y-115347000D02*
X116256000Y-116834000D01*
X117575000Y-118153000D02*
X117575000Y-130457000D01*
X115240000Y-116363000D02*
X116256000Y-115347000D01*
X113442500Y-109251000D02*
X115347500Y-111156000D01*
X116256000Y-116834000D02*
X116293000Y-116871000D01*
X112668000Y-109251000D02*
X113442500Y-109251000D01*
X116397500Y-112807000D02*
X116397500Y-109521500D01*
X116397500Y-109521500D02*
X116668000Y-109251000D01*
D22*
X118333500Y-111918000D02*
X118272500Y-111857000D01*
X119116000Y-111857000D02*
X120193000Y-112934000D01*
X118272500Y-111857000D02*
X119116000Y-111857000D01*
X118338500Y-113823000D02*
X118272500Y-113757000D01*
D21*
X120193000Y-114331000D02*
X120193000Y-114394000D01*
X119240000Y-115347000D02*
X119304000Y-115347000D01*
X119621000Y-108489000D02*
X120193000Y-108489000D01*
X113337000Y-112426000D02*
X114668000Y-113757000D01*
X113286000Y-112426000D02*
X113337000Y-112426000D01*
X119240000Y-115347000D02*
X118272500Y-113757000D01*
X119304000Y-115347000D02*
X120193000Y-114458000D01*
X119240000Y-108870000D02*
X119621000Y-108489000D01*
X119240000Y-109632000D02*
X119240000Y-108870000D01*
X119240000Y-115347000D02*
X119240000Y-115258500D01*
X114668000Y-113757000D02*
X118272500Y-113757000D01*
D22*
X121843000Y-115537000D02*
X121843000Y-114458000D01*
X124320000Y-116490000D02*
X122796000Y-116490000D01*
X121843000Y-114458000D02*
X121843000Y-112934000D01*
X122796000Y-116490000D02*
X121843000Y-115537000D01*
X122669000Y-111410000D02*
X121843000Y-111410000D01*
X126289000Y-113950000D02*
X126352000Y-113887000D01*
X122796000Y-111537000D02*
X122669000Y-111410000D01*
X124320000Y-113950000D02*
X126289000Y-113950000D01*
X123177000Y-113950000D02*
X122796000Y-113569000D01*
X122796000Y-113569000D02*
X122796000Y-111537000D01*
X124320000Y-113950000D02*
X123177000Y-113950000D01*
D21*
X108318000Y-119792000D02*
X109080000Y-119030000D01*
D23*
X110731000Y-119030000D02*
X111986000Y-117775000D01*
X111986000Y-117775000D02*
X111986000Y-117506000D01*
X109080000Y-119030000D02*
X110731000Y-119030000D01*
D21*
X106824000Y-119792000D02*
X108318000Y-119792000D01*
X108826000Y-116744000D02*
X109080000Y-116490000D01*
D23*
X110604000Y-114966000D02*
X111986000Y-114966000D01*
D21*
X106809000Y-116744000D02*
X108826000Y-116744000D01*
D23*
X109080000Y-116490000D02*
X110604000Y-114966000D01*
D21*
X124320000Y-108870000D02*
X122224000Y-108870000D01*
X122224000Y-108870000D02*
X121843000Y-108489000D01*
D23*
X114668000Y-115474000D02*
X113794000Y-115474000D01*
X113794000Y-115474000D02*
X113286000Y-114966000D01*
D21*
X113286000Y-117506000D02*
X113286000Y-114966000D01*
D23*
X114668000Y-107219000D02*
X118901000Y-107219000D01*
X118901000Y-107219000D02*
X120470000Y-105650000D01*
D21*
X109080000Y-113950000D02*
X110462000Y-113950000D01*
X110462000Y-113950000D02*
X111986000Y-112426000D01*
D22*
X119177000Y-110394000D02*
X120193000Y-111410000D01*
X118510500Y-110394000D02*
X119177000Y-110394000D01*
G04 #@! TA.AperFunction,Conductor*
G36*
X126815019Y-96247237D02*
G01*
X126815049Y-96247242D01*
X126835469Y-96247242D01*
X126858097Y-96247242D01*
X126861900Y-96247356D01*
X127153055Y-96264968D01*
X127160597Y-96265884D01*
X127445639Y-96318120D01*
X127453012Y-96319937D01*
X127724439Y-96404518D01*
X127729667Y-96406147D01*
X127736777Y-96408843D01*
X128001031Y-96527774D01*
X128007763Y-96531308D01*
X128255756Y-96681225D01*
X128262004Y-96685539D01*
X128490118Y-96864254D01*
X128495800Y-96869288D01*
X128700710Y-97074198D01*
X128705746Y-97079882D01*
X128796021Y-97195110D01*
X128884456Y-97307989D01*
X128888776Y-97314247D01*
X128916133Y-97359500D01*
X129038691Y-97562236D01*
X129042228Y-97568974D01*
X129160873Y-97832593D01*
X129161152Y-97833212D01*
X129163852Y-97840332D01*
X129250060Y-98116982D01*
X129251883Y-98124376D01*
X129304114Y-98409395D01*
X129305032Y-98416954D01*
X129322643Y-98708097D01*
X129322758Y-98711902D01*
X129322758Y-98734535D01*
X129324500Y-130448359D01*
X129324500Y-130458097D01*
X129324385Y-130461902D01*
X129306761Y-130753255D01*
X129305843Y-130760814D01*
X129253574Y-131046039D01*
X129251752Y-131053432D01*
X129165481Y-131330285D01*
X129162781Y-131337406D01*
X129043773Y-131601827D01*
X129040234Y-131608569D01*
X128890217Y-131856731D01*
X128885891Y-131862999D01*
X128707053Y-132091268D01*
X128702004Y-132096967D01*
X128496967Y-132302004D01*
X128491268Y-132307053D01*
X128262999Y-132485891D01*
X128256731Y-132490217D01*
X128008569Y-132640234D01*
X128001827Y-132643773D01*
X127836304Y-132718270D01*
X127763389Y-132751087D01*
X127737406Y-132762781D01*
X127730285Y-132765481D01*
X127453432Y-132851752D01*
X127446039Y-132853574D01*
X127160814Y-132905843D01*
X127153255Y-132906761D01*
X126898975Y-132922142D01*
X126861900Y-132924385D01*
X126858097Y-132924500D01*
X106541903Y-132924500D01*
X106538099Y-132924385D01*
X106494246Y-132921732D01*
X106246744Y-132906761D01*
X106239185Y-132905843D01*
X106056466Y-132872358D01*
X105953956Y-132853573D01*
X105946566Y-132851751D01*
X105807543Y-132808430D01*
X105748457Y-132769067D01*
X105722187Y-132716173D01*
X105705662Y-132643773D01*
X105669434Y-132485048D01*
X105574039Y-132241983D01*
X105452025Y-132030649D01*
X105443483Y-132015854D01*
X105319190Y-131859996D01*
X105280679Y-131811704D01*
X105089268Y-131634101D01*
X105089171Y-131634035D01*
X104922488Y-131520391D01*
X104873526Y-131487009D01*
X104873523Y-131487008D01*
X104873521Y-131487006D01*
X104873520Y-131487005D01*
X104638270Y-131373716D01*
X104638263Y-131373713D01*
X104388765Y-131296753D01*
X104388755Y-131296751D01*
X104293988Y-131282467D01*
X104229609Y-131252535D01*
X104192474Y-131195360D01*
X104148243Y-131053417D01*
X104146429Y-131046055D01*
X104094155Y-130760807D01*
X104093239Y-130753265D01*
X104075613Y-130461869D01*
X104075557Y-130460000D01*
X105184341Y-130460000D01*
X105204937Y-130695411D01*
X105266096Y-130923661D01*
X105266098Y-130923665D01*
X105365966Y-131137832D01*
X105501498Y-131331392D01*
X105501502Y-131331397D01*
X105501505Y-131331401D01*
X105668599Y-131498495D01*
X105668603Y-131498498D01*
X105668607Y-131498501D01*
X105862167Y-131634033D01*
X105862166Y-131634033D01*
X105938304Y-131669536D01*
X106076337Y-131733903D01*
X106304592Y-131795063D01*
X106481034Y-131810500D01*
X106481041Y-131810500D01*
X106598959Y-131810500D01*
X106598966Y-131810500D01*
X106775408Y-131795063D01*
X107003663Y-131733903D01*
X107217829Y-131634035D01*
X107411401Y-131498495D01*
X107578495Y-131331401D01*
X107714035Y-131137830D01*
X107813903Y-130923663D01*
X107870885Y-130711000D01*
X114692000Y-130711000D01*
X114692000Y-132030597D01*
X114698505Y-132091093D01*
X114749555Y-132227964D01*
X114749555Y-132227965D01*
X114837095Y-132344904D01*
X114954034Y-132432444D01*
X115090906Y-132483494D01*
X115151402Y-132489999D01*
X115151415Y-132490000D01*
X115571000Y-132490000D01*
X115571000Y-130711000D01*
X114692000Y-130711000D01*
X107870885Y-130711000D01*
X107875063Y-130695408D01*
X107895659Y-130460000D01*
X107875063Y-130224592D01*
X107869278Y-130203000D01*
X114692000Y-130203000D01*
X115571000Y-130203000D01*
X115571000Y-128424000D01*
X115151402Y-128424000D01*
X115090906Y-128430505D01*
X114954035Y-128481555D01*
X114954034Y-128481555D01*
X114837095Y-128569095D01*
X114749555Y-128686034D01*
X114749555Y-128686035D01*
X114698505Y-128822906D01*
X114692000Y-128883402D01*
X114692000Y-130203000D01*
X107869278Y-130203000D01*
X107813903Y-129996337D01*
X107714035Y-129782171D01*
X107714034Y-129782169D01*
X107714033Y-129782167D01*
X107578501Y-129588607D01*
X107578497Y-129588602D01*
X107578495Y-129588599D01*
X107411401Y-129421505D01*
X107411397Y-129421502D01*
X107411392Y-129421498D01*
X107217832Y-129285966D01*
X107217833Y-129285966D01*
X107003665Y-129186098D01*
X107003661Y-129186096D01*
X106775411Y-129124937D01*
X106722475Y-129120305D01*
X106598966Y-129109500D01*
X106481034Y-129109500D01*
X106368752Y-129119323D01*
X106304588Y-129124937D01*
X106076338Y-129186096D01*
X106076334Y-129186098D01*
X105862167Y-129285966D01*
X105668607Y-129421498D01*
X105668596Y-129421507D01*
X105501507Y-129588596D01*
X105501502Y-129588602D01*
X105365965Y-129782169D01*
X105266098Y-129996334D01*
X105266096Y-129996338D01*
X105204937Y-130224588D01*
X105184341Y-130460000D01*
X104075557Y-130460000D01*
X104075500Y-130458126D01*
X104075500Y-130435469D01*
X104075500Y-120046000D01*
X104516000Y-120046000D01*
X104516000Y-120590597D01*
X104522505Y-120651093D01*
X104573555Y-120787964D01*
X104573555Y-120787965D01*
X104661095Y-120904904D01*
X104778034Y-120992444D01*
X104914906Y-121043494D01*
X104975402Y-121049999D01*
X104975415Y-121050000D01*
X105270000Y-121050000D01*
X105270000Y-120046000D01*
X104516000Y-120046000D01*
X104075500Y-120046000D01*
X104075500Y-119538000D01*
X104516000Y-119538000D01*
X105270000Y-119538000D01*
X105270000Y-118534000D01*
X104975402Y-118534000D01*
X104914906Y-118540505D01*
X104778035Y-118591555D01*
X104778034Y-118591555D01*
X104661095Y-118679095D01*
X104573555Y-118796034D01*
X104573555Y-118796035D01*
X104522505Y-118932906D01*
X104516000Y-118993402D01*
X104516000Y-119538000D01*
X104075500Y-119538000D01*
X104075500Y-116998000D01*
X104501000Y-116998000D01*
X104501000Y-117542597D01*
X104507505Y-117603093D01*
X104558555Y-117739964D01*
X104558555Y-117739965D01*
X104646095Y-117856904D01*
X104763034Y-117944444D01*
X104899906Y-117995494D01*
X104960402Y-118001999D01*
X104960415Y-118002000D01*
X105255000Y-118002000D01*
X105763000Y-118002000D01*
X106057585Y-118002000D01*
X106057597Y-118001999D01*
X106118094Y-117995494D01*
X106125770Y-117993681D01*
X106126333Y-117996065D01*
X106185059Y-117991862D01*
X106196309Y-117995164D01*
X106199798Y-117995989D01*
X106260350Y-118002499D01*
X106260355Y-118002499D01*
X106260362Y-118002500D01*
X106260368Y-118002500D01*
X107357632Y-118002500D01*
X107357638Y-118002500D01*
X107357645Y-118002499D01*
X107357649Y-118002499D01*
X107418196Y-117995990D01*
X107418199Y-117995989D01*
X107418201Y-117995989D01*
X107555204Y-117944889D01*
X107555799Y-117944444D01*
X107672261Y-117857261D01*
X107759887Y-117740207D01*
X107759887Y-117740206D01*
X107759889Y-117740204D01*
X107810989Y-117603201D01*
X107810989Y-117603199D01*
X107811859Y-117599522D01*
X107813316Y-117596963D01*
X107813744Y-117595816D01*
X107813929Y-117595885D01*
X107846991Y-117537827D01*
X107909901Y-117504921D01*
X107934481Y-117502500D01*
X108125830Y-117502500D01*
X108193951Y-117522502D01*
X108203221Y-117529069D01*
X108298464Y-117603200D01*
X108334424Y-117631189D01*
X108367680Y-117649186D01*
X108418071Y-117699200D01*
X108433423Y-117768516D01*
X108408862Y-117835129D01*
X108367680Y-117870813D01*
X108334426Y-117888810D01*
X108334424Y-117888811D01*
X108156762Y-118027091D01*
X108004279Y-118192729D01*
X108004275Y-118192734D01*
X107881139Y-118381209D01*
X107798749Y-118569040D01*
X107753068Y-118623388D01*
X107685256Y-118644412D01*
X107616842Y-118625436D01*
X107607853Y-118619294D01*
X107570207Y-118591112D01*
X107570202Y-118591110D01*
X107433204Y-118540011D01*
X107433196Y-118540009D01*
X107372649Y-118533500D01*
X107372638Y-118533500D01*
X106275362Y-118533500D01*
X106275350Y-118533500D01*
X106214804Y-118540009D01*
X106207133Y-118541823D01*
X106206663Y-118539836D01*
X106146486Y-118544133D01*
X106138398Y-118541758D01*
X106133096Y-118540505D01*
X106072597Y-118534000D01*
X105778000Y-118534000D01*
X105778000Y-121050000D01*
X106072585Y-121050000D01*
X106072597Y-121049999D01*
X106133094Y-121043494D01*
X106140770Y-121041681D01*
X106141333Y-121044065D01*
X106200059Y-121039862D01*
X106211309Y-121043164D01*
X106214798Y-121043989D01*
X106275350Y-121050499D01*
X106275355Y-121050499D01*
X106275362Y-121050500D01*
X106275368Y-121050500D01*
X107372632Y-121050500D01*
X107372638Y-121050500D01*
X107372645Y-121050499D01*
X107372649Y-121050499D01*
X107433196Y-121043990D01*
X107433199Y-121043989D01*
X107433201Y-121043989D01*
X107570204Y-120992889D01*
X107570799Y-120992444D01*
X107687261Y-120905261D01*
X107774887Y-120788207D01*
X107774887Y-120788206D01*
X107774889Y-120788204D01*
X107825989Y-120651201D01*
X107825989Y-120651199D01*
X107826859Y-120647522D01*
X107828316Y-120644963D01*
X107828744Y-120643816D01*
X107828929Y-120643885D01*
X107861991Y-120585827D01*
X107924901Y-120552921D01*
X107949481Y-120550500D01*
X108253559Y-120550500D01*
X108271819Y-120551830D01*
X108276715Y-120552547D01*
X108295789Y-120555341D01*
X108329146Y-120552422D01*
X108348385Y-120550740D01*
X108353878Y-120550500D01*
X108362175Y-120550500D01*
X108362180Y-120550500D01*
X108384230Y-120547922D01*
X108394182Y-120546759D01*
X108395985Y-120546574D01*
X108472426Y-120539887D01*
X108472430Y-120539885D01*
X108479618Y-120538402D01*
X108479631Y-120538468D01*
X108486987Y-120536836D01*
X108486972Y-120536771D01*
X108494102Y-120535080D01*
X108494113Y-120535079D01*
X108566239Y-120508826D01*
X108567862Y-120508261D01*
X108640738Y-120484114D01*
X108640747Y-120484108D01*
X108647389Y-120481012D01*
X108647418Y-120481074D01*
X108654203Y-120477789D01*
X108654173Y-120477729D01*
X108660724Y-120474437D01*
X108660732Y-120474435D01*
X108724883Y-120432240D01*
X108726348Y-120431307D01*
X108791651Y-120391030D01*
X108791654Y-120391026D01*
X108792064Y-120390774D01*
X108860543Y-120372038D01*
X108878938Y-120373733D01*
X108967431Y-120388500D01*
X108967435Y-120388500D01*
X109192565Y-120388500D01*
X109192569Y-120388500D01*
X109414635Y-120351444D01*
X109627574Y-120278342D01*
X109825576Y-120171189D01*
X110003240Y-120032906D01*
X110155722Y-119867268D01*
X110202554Y-119795585D01*
X110256558Y-119749496D01*
X110308038Y-119738500D01*
X110707685Y-119738500D01*
X110711488Y-119738614D01*
X110774093Y-119742402D01*
X110835812Y-119731091D01*
X110839525Y-119730526D01*
X110901801Y-119722965D01*
X110911330Y-119719350D01*
X110933304Y-119713226D01*
X110943329Y-119711389D01*
X111000552Y-119685634D01*
X111004009Y-119684202D01*
X111062675Y-119661954D01*
X111071066Y-119656161D01*
X111090922Y-119644961D01*
X111100226Y-119640775D01*
X111149636Y-119602063D01*
X111152621Y-119599867D01*
X111204273Y-119564215D01*
X111245888Y-119517239D01*
X111248457Y-119514511D01*
X111961565Y-118801404D01*
X112023878Y-118767379D01*
X112050661Y-118764500D01*
X112534632Y-118764500D01*
X112534638Y-118764500D01*
X112595201Y-118757989D01*
X112595204Y-118757987D01*
X112602878Y-118756175D01*
X112603399Y-118758382D01*
X112662754Y-118754123D01*
X112672304Y-118756926D01*
X112676803Y-118757990D01*
X112737350Y-118764499D01*
X112737355Y-118764499D01*
X112737362Y-118764500D01*
X112737368Y-118764500D01*
X113834632Y-118764500D01*
X113834638Y-118764500D01*
X113834645Y-118764499D01*
X113834649Y-118764499D01*
X113895196Y-118757990D01*
X113895199Y-118757989D01*
X113895201Y-118757989D01*
X113900065Y-118756175D01*
X113914045Y-118750960D01*
X114032204Y-118706889D01*
X114069333Y-118679095D01*
X114149261Y-118619261D01*
X114236887Y-118502207D01*
X114236887Y-118502206D01*
X114236889Y-118502204D01*
X114287989Y-118365201D01*
X114294500Y-118304638D01*
X114294500Y-117151552D01*
X114314502Y-117083431D01*
X114368158Y-117036938D01*
X114438432Y-117026834D01*
X114487534Y-117044864D01*
X114568985Y-117096043D01*
X114740953Y-117156217D01*
X114922000Y-117176616D01*
X115103047Y-117156217D01*
X115168693Y-117133246D01*
X115213956Y-117126229D01*
X115217781Y-117126339D01*
X115217789Y-117126341D01*
X115217796Y-117126340D01*
X115219922Y-117126402D01*
X115287435Y-117148370D01*
X115332353Y-117203351D01*
X115341617Y-117239540D01*
X115344763Y-117270333D01*
X115344764Y-117270336D01*
X115398698Y-117433101D01*
X115444756Y-117507772D01*
X115488715Y-117579040D01*
X115488720Y-117579046D01*
X115609953Y-117700279D01*
X115609959Y-117700284D01*
X115609960Y-117700285D01*
X115755899Y-117790302D01*
X115918664Y-117844236D01*
X115938756Y-117846288D01*
X116019120Y-117854500D01*
X116019128Y-117854500D01*
X116151628Y-117854500D01*
X116219749Y-117874502D01*
X116240723Y-117891404D01*
X116779595Y-118430275D01*
X116813620Y-118492588D01*
X116816500Y-118519371D01*
X116816500Y-128345037D01*
X116796498Y-128413158D01*
X116742842Y-128459651D01*
X116672568Y-128469755D01*
X116646469Y-128463093D01*
X116559095Y-128430505D01*
X116559096Y-128430505D01*
X116498597Y-128424000D01*
X116079000Y-128424000D01*
X116079000Y-132490000D01*
X116498585Y-132490000D01*
X116498597Y-132489999D01*
X116559092Y-132483494D01*
X116655252Y-132447629D01*
X116726068Y-132442564D01*
X116743318Y-132447630D01*
X116840795Y-132483988D01*
X116840803Y-132483990D01*
X116901350Y-132490499D01*
X116901355Y-132490499D01*
X116901362Y-132490500D01*
X116901368Y-132490500D01*
X118248632Y-132490500D01*
X118248638Y-132490500D01*
X118248645Y-132490499D01*
X118248649Y-132490499D01*
X118309196Y-132483990D01*
X118309199Y-132483989D01*
X118309201Y-132483989D01*
X118446204Y-132432889D01*
X118446799Y-132432444D01*
X118563261Y-132345261D01*
X118650887Y-132228207D01*
X118650887Y-132228206D01*
X118650889Y-132228204D01*
X118701989Y-132091201D01*
X118703926Y-132073190D01*
X118708499Y-132030649D01*
X118708500Y-132030632D01*
X118708500Y-130460000D01*
X125504341Y-130460000D01*
X125524937Y-130695411D01*
X125586096Y-130923661D01*
X125586098Y-130923665D01*
X125685966Y-131137832D01*
X125821498Y-131331392D01*
X125821502Y-131331397D01*
X125821505Y-131331401D01*
X125988599Y-131498495D01*
X125988603Y-131498498D01*
X125988607Y-131498501D01*
X126182167Y-131634033D01*
X126182166Y-131634033D01*
X126258304Y-131669536D01*
X126396337Y-131733903D01*
X126624592Y-131795063D01*
X126801034Y-131810500D01*
X126801041Y-131810500D01*
X126918959Y-131810500D01*
X126918966Y-131810500D01*
X127095408Y-131795063D01*
X127323663Y-131733903D01*
X127537829Y-131634035D01*
X127731401Y-131498495D01*
X127898495Y-131331401D01*
X128034035Y-131137830D01*
X128133903Y-130923663D01*
X128195063Y-130695408D01*
X128215659Y-130460000D01*
X128195063Y-130224592D01*
X128133903Y-129996337D01*
X128034035Y-129782171D01*
X128034034Y-129782169D01*
X128034033Y-129782167D01*
X127898501Y-129588607D01*
X127898497Y-129588602D01*
X127898495Y-129588599D01*
X127731401Y-129421505D01*
X127731397Y-129421502D01*
X127731392Y-129421498D01*
X127537832Y-129285966D01*
X127537833Y-129285966D01*
X127323665Y-129186098D01*
X127323661Y-129186096D01*
X127095411Y-129124937D01*
X127042475Y-129120305D01*
X126918966Y-129109500D01*
X126801034Y-129109500D01*
X126688752Y-129119323D01*
X126624588Y-129124937D01*
X126396338Y-129186096D01*
X126396334Y-129186098D01*
X126182167Y-129285966D01*
X125988607Y-129421498D01*
X125988596Y-129421507D01*
X125821507Y-129588596D01*
X125821502Y-129588602D01*
X125685965Y-129782169D01*
X125586098Y-129996334D01*
X125586096Y-129996338D01*
X125524937Y-130224588D01*
X125504341Y-130460000D01*
X118708500Y-130460000D01*
X118708500Y-128883367D01*
X118708499Y-128883350D01*
X118701990Y-128822803D01*
X118701988Y-128822795D01*
X118650978Y-128686035D01*
X118650889Y-128685796D01*
X118650888Y-128685794D01*
X118650887Y-128685792D01*
X118563261Y-128568738D01*
X118446207Y-128481112D01*
X118446204Y-128481111D01*
X118415466Y-128469646D01*
X118358631Y-128427099D01*
X118333821Y-128360578D01*
X118333500Y-128351591D01*
X118333500Y-118217441D01*
X118334830Y-118199182D01*
X118335940Y-118191600D01*
X118338341Y-118175211D01*
X118335875Y-118147027D01*
X118333740Y-118122614D01*
X118333500Y-118117121D01*
X118333500Y-118108813D01*
X118329759Y-118076822D01*
X118329575Y-118075033D01*
X118322887Y-117998574D01*
X118322885Y-117998570D01*
X118321403Y-117991388D01*
X118321469Y-117991374D01*
X118319837Y-117984012D01*
X118319772Y-117984028D01*
X118318080Y-117976890D01*
X118308336Y-117950119D01*
X118303833Y-117879266D01*
X118338350Y-117817225D01*
X118373496Y-117792825D01*
X118379891Y-117789843D01*
X118525728Y-117699890D01*
X118525734Y-117699885D01*
X118646885Y-117578734D01*
X118646890Y-117578728D01*
X118736847Y-117432884D01*
X118790742Y-117270241D01*
X118790744Y-117270229D01*
X118800999Y-117169852D01*
X118801000Y-117169852D01*
X118801000Y-117125000D01*
X117715000Y-117125000D01*
X117646879Y-117104998D01*
X117600386Y-117051342D01*
X117589000Y-116999000D01*
X117589000Y-115963191D01*
X117609002Y-115895070D01*
X117625905Y-115874096D01*
X117652000Y-115848001D01*
X117652000Y-115219000D01*
X117672002Y-115150879D01*
X117725658Y-115104386D01*
X117778000Y-115093000D01*
X118034000Y-115093000D01*
X118102121Y-115113002D01*
X118148614Y-115166658D01*
X118160000Y-115219000D01*
X118160000Y-116254808D01*
X118139998Y-116322929D01*
X118123096Y-116343903D01*
X118097000Y-116369999D01*
X118097000Y-116617000D01*
X118801000Y-116617000D01*
X118801000Y-116572147D01*
X118790744Y-116471770D01*
X118790742Y-116471758D01*
X118736847Y-116309115D01*
X118695484Y-116242055D01*
X118676747Y-116173576D01*
X118698006Y-116105837D01*
X118752513Y-116060345D01*
X118822962Y-116051544D01*
X118869761Y-116069221D01*
X118884150Y-116078261D01*
X118886985Y-116080043D01*
X119058953Y-116140217D01*
X119240000Y-116160616D01*
X119421047Y-116140217D01*
X119593015Y-116080043D01*
X119747281Y-115983111D01*
X119876111Y-115854281D01*
X119879903Y-115848244D01*
X119897491Y-115826188D01*
X120245278Y-115478401D01*
X120307588Y-115444378D01*
X120334371Y-115441499D01*
X120450262Y-115441499D01*
X120450264Y-115441499D01*
X120521649Y-115435013D01*
X120685913Y-115383827D01*
X120833155Y-115294816D01*
X120863404Y-115264567D01*
X120928905Y-115199067D01*
X120991217Y-115165041D01*
X121062032Y-115170106D01*
X121107095Y-115199067D01*
X121172595Y-115264567D01*
X121206621Y-115326879D01*
X121209500Y-115353662D01*
X121209500Y-115453146D01*
X121207751Y-115468988D01*
X121208044Y-115469016D01*
X121207298Y-115476908D01*
X121209469Y-115545974D01*
X121209500Y-115547953D01*
X121209500Y-115576851D01*
X121209501Y-115576872D01*
X121210378Y-115583820D01*
X121210844Y-115589732D01*
X121212326Y-115636888D01*
X121212327Y-115636893D01*
X121217977Y-115656339D01*
X121221986Y-115675697D01*
X121224525Y-115695793D01*
X121224526Y-115695799D01*
X121241893Y-115739662D01*
X121243816Y-115745279D01*
X121256982Y-115790593D01*
X121267294Y-115808031D01*
X121275988Y-115825779D01*
X121283444Y-115844609D01*
X121283450Y-115844620D01*
X121311177Y-115882783D01*
X121314437Y-115887746D01*
X121338460Y-115928365D01*
X121352779Y-115942684D01*
X121365617Y-115957714D01*
X121368882Y-115962207D01*
X121377528Y-115974107D01*
X121391300Y-115985500D01*
X121413886Y-116004185D01*
X121418267Y-116008171D01*
X121855094Y-116444998D01*
X122288753Y-116878657D01*
X122298720Y-116891097D01*
X122298947Y-116890910D01*
X122303999Y-116897017D01*
X122354388Y-116944335D01*
X122355777Y-116945681D01*
X122376231Y-116966135D01*
X122381770Y-116970431D01*
X122386282Y-116974285D01*
X122420678Y-117006585D01*
X122420682Y-117006588D01*
X122438430Y-117016345D01*
X122454957Y-117027201D01*
X122470960Y-117039614D01*
X122514259Y-117058351D01*
X122519585Y-117060960D01*
X122560935Y-117083693D01*
X122560938Y-117083694D01*
X122560940Y-117083695D01*
X122580562Y-117088733D01*
X122599263Y-117095135D01*
X122611814Y-117100567D01*
X122617852Y-117103180D01*
X122617853Y-117103180D01*
X122617855Y-117103181D01*
X122664477Y-117110564D01*
X122670262Y-117111763D01*
X122715970Y-117123500D01*
X122736224Y-117123500D01*
X122755934Y-117125051D01*
X122758141Y-117125400D01*
X122775943Y-117128220D01*
X122810007Y-117125000D01*
X122822917Y-117123780D01*
X122828850Y-117123500D01*
X123042962Y-117123500D01*
X123111083Y-117143502D01*
X123148445Y-117180585D01*
X123244275Y-117327265D01*
X123244280Y-117327270D01*
X123387475Y-117482820D01*
X123418896Y-117546485D01*
X123410909Y-117617031D01*
X123366051Y-117672060D01*
X123338807Y-117686213D01*
X123223797Y-117729110D01*
X123223792Y-117729112D01*
X123106738Y-117816738D01*
X123019112Y-117933792D01*
X123019110Y-117933797D01*
X122968011Y-118070795D01*
X122968009Y-118070803D01*
X122961500Y-118131350D01*
X122961500Y-119928649D01*
X122968009Y-119989196D01*
X122968011Y-119989204D01*
X123019110Y-120126202D01*
X123019112Y-120126207D01*
X123106738Y-120243261D01*
X123223792Y-120330887D01*
X123223794Y-120330888D01*
X123223796Y-120330889D01*
X123278900Y-120351442D01*
X123360795Y-120381988D01*
X123360803Y-120381990D01*
X123421350Y-120388499D01*
X123421355Y-120388499D01*
X123421362Y-120388500D01*
X123421368Y-120388500D01*
X125218632Y-120388500D01*
X125218638Y-120388500D01*
X125218645Y-120388499D01*
X125218649Y-120388499D01*
X125279196Y-120381990D01*
X125279199Y-120381989D01*
X125279201Y-120381989D01*
X125416204Y-120330889D01*
X125486399Y-120278342D01*
X125533261Y-120243261D01*
X125620887Y-120126207D01*
X125620887Y-120126206D01*
X125620889Y-120126204D01*
X125671989Y-119989201D01*
X125678500Y-119928638D01*
X125678500Y-118131362D01*
X125677560Y-118122614D01*
X125671990Y-118070803D01*
X125671988Y-118070795D01*
X125626977Y-117950119D01*
X125620889Y-117933796D01*
X125620888Y-117933794D01*
X125620887Y-117933792D01*
X125533261Y-117816738D01*
X125416207Y-117729112D01*
X125416203Y-117729110D01*
X125301192Y-117686213D01*
X125244356Y-117643667D01*
X125219546Y-117577146D01*
X125234638Y-117507772D01*
X125252525Y-117482820D01*
X125395714Y-117327277D01*
X125395724Y-117327265D01*
X125432919Y-117270333D01*
X125518860Y-117138791D01*
X125609296Y-116932616D01*
X125664564Y-116714368D01*
X125681011Y-116515877D01*
X125706569Y-116449646D01*
X125763881Y-116407743D01*
X125834749Y-116403476D01*
X125844066Y-116405992D01*
X125948447Y-116438518D01*
X126019777Y-116444999D01*
X126097999Y-116444998D01*
X126098000Y-116444998D01*
X126098000Y-115791000D01*
X126606000Y-115791000D01*
X126606000Y-116444999D01*
X126684222Y-116444999D01*
X126755553Y-116438518D01*
X126919706Y-116387366D01*
X127066840Y-116298421D01*
X127066850Y-116298413D01*
X127188413Y-116176850D01*
X127188421Y-116176840D01*
X127277366Y-116029706D01*
X127328518Y-115865553D01*
X127328518Y-115865552D01*
X127335000Y-115794222D01*
X127335000Y-115791000D01*
X126606000Y-115791000D01*
X126098000Y-115791000D01*
X126098000Y-115409000D01*
X126118002Y-115340879D01*
X126171658Y-115294386D01*
X126224000Y-115283000D01*
X127334999Y-115283000D01*
X127334999Y-115279778D01*
X127328518Y-115208446D01*
X127277366Y-115044293D01*
X127188421Y-114897159D01*
X127188413Y-114897149D01*
X127092713Y-114801449D01*
X127058687Y-114739137D01*
X127063752Y-114668322D01*
X127092713Y-114623259D01*
X127188811Y-114527160D01*
X127188816Y-114527155D01*
X127277827Y-114379913D01*
X127329013Y-114215649D01*
X127335500Y-114144265D01*
X127335499Y-113629736D01*
X127329013Y-113558351D01*
X127277827Y-113394087D01*
X127188816Y-113246845D01*
X127188815Y-113246844D01*
X127188811Y-113246839D01*
X127067160Y-113125188D01*
X127067155Y-113125184D01*
X126919913Y-113036173D01*
X126919912Y-113036172D01*
X126919911Y-113036172D01*
X126919906Y-113036170D01*
X126755646Y-112984986D01*
X126703722Y-112980268D01*
X126684265Y-112978500D01*
X126684262Y-112978500D01*
X126019738Y-112978500D01*
X125948353Y-112984986D01*
X125948352Y-112984986D01*
X125784093Y-113036170D01*
X125784088Y-113036172D01*
X125636844Y-113125184D01*
X125605637Y-113156391D01*
X125543325Y-113190415D01*
X125472509Y-113185349D01*
X125415674Y-113142802D01*
X125411059Y-113136207D01*
X125395725Y-113112736D01*
X125395720Y-113112729D01*
X125272152Y-112978501D01*
X125243240Y-112947094D01*
X125243239Y-112947093D01*
X125243237Y-112947091D01*
X125083163Y-112822500D01*
X125065576Y-112808811D01*
X125032319Y-112790813D01*
X124981929Y-112740802D01*
X124966576Y-112671485D01*
X124991136Y-112604872D01*
X125032320Y-112569186D01*
X125065576Y-112551189D01*
X125243240Y-112412906D01*
X125395722Y-112247268D01*
X125518860Y-112058791D01*
X125609296Y-111852616D01*
X125664564Y-111634368D01*
X125683156Y-111410000D01*
X125664564Y-111185632D01*
X125633582Y-111063288D01*
X125609297Y-110967387D01*
X125609296Y-110967386D01*
X125609296Y-110967384D01*
X125518860Y-110761209D01*
X125488712Y-110715064D01*
X125395724Y-110572734D01*
X125395720Y-110572729D01*
X125267076Y-110432987D01*
X125243240Y-110407094D01*
X125243239Y-110407093D01*
X125243237Y-110407091D01*
X125137620Y-110324886D01*
X125065576Y-110268811D01*
X125065569Y-110268807D01*
X125032318Y-110250812D01*
X124981928Y-110200798D01*
X124966576Y-110131481D01*
X124991137Y-110064869D01*
X125032315Y-110029188D01*
X125065576Y-110011189D01*
X125243240Y-109872906D01*
X125395722Y-109707268D01*
X125518860Y-109518791D01*
X125609296Y-109312616D01*
X125664564Y-109094368D01*
X125683156Y-108870000D01*
X125664564Y-108645632D01*
X125621266Y-108474652D01*
X125609297Y-108427387D01*
X125609296Y-108427386D01*
X125609296Y-108427384D01*
X125518860Y-108221209D01*
X125452490Y-108119622D01*
X125395724Y-108032734D01*
X125395720Y-108032729D01*
X125277214Y-107903999D01*
X125243240Y-107867094D01*
X125243239Y-107867093D01*
X125243237Y-107867091D01*
X125130432Y-107779291D01*
X125065576Y-107728811D01*
X125065572Y-107728808D01*
X125065571Y-107728808D01*
X125065569Y-107728807D01*
X125032318Y-107710812D01*
X124981928Y-107660798D01*
X124966576Y-107591481D01*
X124991137Y-107524869D01*
X125032315Y-107489188D01*
X125065576Y-107471189D01*
X125243240Y-107332906D01*
X125395722Y-107167268D01*
X125518860Y-106978791D01*
X125609296Y-106772616D01*
X125664564Y-106554368D01*
X125683156Y-106330000D01*
X125664564Y-106105632D01*
X125609296Y-105887384D01*
X125518860Y-105681209D01*
X125451503Y-105578111D01*
X125395724Y-105492734D01*
X125395720Y-105492729D01*
X125243237Y-105327091D01*
X125161382Y-105263381D01*
X125065576Y-105188811D01*
X125032319Y-105170813D01*
X124981929Y-105120802D01*
X124966576Y-105051485D01*
X124991136Y-104984872D01*
X125032320Y-104949186D01*
X125065576Y-104931189D01*
X125243240Y-104792906D01*
X125395722Y-104627268D01*
X125518860Y-104438791D01*
X125609296Y-104232616D01*
X125664564Y-104014368D01*
X125683156Y-103790000D01*
X125664564Y-103565632D01*
X125609296Y-103347384D01*
X125518860Y-103141209D01*
X125512140Y-103130924D01*
X125395724Y-102952734D01*
X125395720Y-102952729D01*
X125243237Y-102787091D01*
X125161382Y-102723381D01*
X125065576Y-102648811D01*
X124867574Y-102541658D01*
X124867572Y-102541657D01*
X124867571Y-102541656D01*
X124654639Y-102468557D01*
X124654630Y-102468555D01*
X124610476Y-102461187D01*
X124432569Y-102431500D01*
X124207431Y-102431500D01*
X124059211Y-102456233D01*
X123985369Y-102468555D01*
X123985360Y-102468557D01*
X123772428Y-102541656D01*
X123772426Y-102541658D01*
X123574426Y-102648810D01*
X123574424Y-102648811D01*
X123396762Y-102787091D01*
X123244279Y-102952729D01*
X123244275Y-102952734D01*
X123121141Y-103141206D01*
X123030703Y-103347386D01*
X123030702Y-103347387D01*
X122975437Y-103565624D01*
X122956844Y-103790000D01*
X122975437Y-104014375D01*
X123030702Y-104232612D01*
X123030703Y-104232613D01*
X123030704Y-104232616D01*
X123081998Y-104349555D01*
X123121141Y-104438793D01*
X123244275Y-104627265D01*
X123244279Y-104627270D01*
X123396762Y-104792908D01*
X123451331Y-104835381D01*
X123574424Y-104931189D01*
X123607680Y-104949186D01*
X123658071Y-104999200D01*
X123673423Y-105068516D01*
X123648862Y-105135129D01*
X123607680Y-105170813D01*
X123574426Y-105188810D01*
X123574424Y-105188811D01*
X123396762Y-105327091D01*
X123244279Y-105492729D01*
X123244275Y-105492734D01*
X123121141Y-105681206D01*
X123030703Y-105887386D01*
X123030702Y-105887387D01*
X122975437Y-106105624D01*
X122975436Y-106105630D01*
X122975436Y-106105632D01*
X122959430Y-106298791D01*
X122956844Y-106330000D01*
X122975437Y-106554375D01*
X123030702Y-106772612D01*
X123030703Y-106772613D01*
X123030704Y-106772616D01*
X123117917Y-106971444D01*
X123121141Y-106978793D01*
X123244275Y-107167265D01*
X123244279Y-107167270D01*
X123396762Y-107332908D01*
X123451331Y-107375381D01*
X123574424Y-107471189D01*
X123607674Y-107489183D01*
X123607680Y-107489186D01*
X123658071Y-107539200D01*
X123673423Y-107608516D01*
X123648862Y-107675129D01*
X123607680Y-107710814D01*
X123574425Y-107728810D01*
X123396762Y-107867091D01*
X123244277Y-108032733D01*
X123230110Y-108054417D01*
X123176105Y-108100505D01*
X123124628Y-108111500D01*
X122923761Y-108111500D01*
X122855640Y-108091498D01*
X122822893Y-108061009D01*
X122785261Y-108010738D01*
X122668207Y-107923112D01*
X122668202Y-107923110D01*
X122531204Y-107872011D01*
X122531196Y-107872009D01*
X122470649Y-107865500D01*
X122470638Y-107865500D01*
X122321174Y-107865500D01*
X122253053Y-107845498D01*
X122244595Y-107839458D01*
X122243910Y-107839035D01*
X122083204Y-107764096D01*
X121909559Y-107728241D01*
X121909558Y-107728241D01*
X121850478Y-107729959D01*
X121732319Y-107733398D01*
X121617755Y-107764096D01*
X121561050Y-107779290D01*
X121561049Y-107779290D01*
X121561047Y-107779291D01*
X121429091Y-107850442D01*
X121376038Y-107865356D01*
X121373365Y-107865499D01*
X121312804Y-107872009D01*
X121305133Y-107873823D01*
X121304613Y-107871624D01*
X121245201Y-107875866D01*
X121235672Y-107873068D01*
X121231195Y-107872009D01*
X121170649Y-107865500D01*
X121170638Y-107865500D01*
X120671437Y-107865500D01*
X120614889Y-107852098D01*
X120612641Y-107850969D01*
X120612640Y-107850968D01*
X120454188Y-107771391D01*
X120281656Y-107730500D01*
X120281654Y-107730500D01*
X119695659Y-107730500D01*
X119627538Y-107710498D01*
X119581045Y-107656842D01*
X119570941Y-107586568D01*
X119600435Y-107521988D01*
X119606549Y-107515419D01*
X120102498Y-107019470D01*
X120164807Y-106985448D01*
X120212324Y-106984286D01*
X120357431Y-107008500D01*
X120357436Y-107008500D01*
X120582565Y-107008500D01*
X120582569Y-107008500D01*
X120804635Y-106971444D01*
X121017574Y-106898342D01*
X121215576Y-106791189D01*
X121393240Y-106652906D01*
X121545722Y-106487268D01*
X121668860Y-106298791D01*
X121759296Y-106092616D01*
X121814564Y-105874368D01*
X121833156Y-105650000D01*
X121814564Y-105425632D01*
X121759296Y-105207384D01*
X121668860Y-105001209D01*
X121658187Y-104984872D01*
X121545724Y-104812734D01*
X121545720Y-104812729D01*
X121393237Y-104647091D01*
X121273679Y-104554035D01*
X121215576Y-104508811D01*
X121017574Y-104401658D01*
X121017572Y-104401657D01*
X121017571Y-104401656D01*
X120804639Y-104328557D01*
X120804630Y-104328555D01*
X120760476Y-104321187D01*
X120582569Y-104291500D01*
X120357431Y-104291500D01*
X120209211Y-104316233D01*
X120135369Y-104328555D01*
X120135360Y-104328557D01*
X119922428Y-104401656D01*
X119922426Y-104401658D01*
X119724426Y-104508810D01*
X119724424Y-104508811D01*
X119546762Y-104647091D01*
X119394279Y-104812729D01*
X119305483Y-104948643D01*
X119251479Y-104994731D01*
X119181131Y-105004306D01*
X119116774Y-104974329D01*
X119094517Y-104948643D01*
X119005720Y-104812729D01*
X118853237Y-104647091D01*
X118733679Y-104554035D01*
X118675576Y-104508811D01*
X118477574Y-104401658D01*
X118477572Y-104401657D01*
X118477571Y-104401656D01*
X118264639Y-104328557D01*
X118264630Y-104328555D01*
X118220476Y-104321187D01*
X118042569Y-104291500D01*
X117817431Y-104291500D01*
X117669211Y-104316233D01*
X117595369Y-104328555D01*
X117595360Y-104328557D01*
X117382428Y-104401656D01*
X117382426Y-104401658D01*
X117184426Y-104508810D01*
X117184424Y-104508811D01*
X117006762Y-104647091D01*
X116854279Y-104812729D01*
X116765483Y-104948643D01*
X116711479Y-104994731D01*
X116641131Y-105004306D01*
X116576774Y-104974329D01*
X116554517Y-104948643D01*
X116465720Y-104812729D01*
X116313237Y-104647091D01*
X116193679Y-104554035D01*
X116135576Y-104508811D01*
X115937574Y-104401658D01*
X115937572Y-104401657D01*
X115937571Y-104401656D01*
X115724639Y-104328557D01*
X115724630Y-104328555D01*
X115680476Y-104321187D01*
X115502569Y-104291500D01*
X115277431Y-104291500D01*
X115129211Y-104316233D01*
X115055369Y-104328555D01*
X115055360Y-104328557D01*
X114842428Y-104401656D01*
X114842426Y-104401658D01*
X114644426Y-104508810D01*
X114644424Y-104508811D01*
X114466759Y-104647094D01*
X114405374Y-104713775D01*
X114344521Y-104750346D01*
X114273557Y-104748211D01*
X114215012Y-104708049D01*
X114194618Y-104672470D01*
X114150443Y-104554033D01*
X114062904Y-104437095D01*
X113945965Y-104349555D01*
X113809093Y-104298505D01*
X113748597Y-104292000D01*
X113104000Y-104292000D01*
X113104000Y-105216325D01*
X112992315Y-105165320D01*
X112885763Y-105150000D01*
X112814237Y-105150000D01*
X112707685Y-105165320D01*
X112596000Y-105216325D01*
X112596000Y-104292000D01*
X111951402Y-104292000D01*
X111890906Y-104298505D01*
X111754035Y-104349555D01*
X111754034Y-104349555D01*
X111637095Y-104437095D01*
X111549555Y-104554034D01*
X111549555Y-104554035D01*
X111498505Y-104690906D01*
X111492000Y-104751402D01*
X111492000Y-105396000D01*
X112418884Y-105396000D01*
X112390507Y-105440156D01*
X112350000Y-105578111D01*
X112350000Y-105721889D01*
X112390507Y-105859844D01*
X112418884Y-105904000D01*
X111492000Y-105904000D01*
X111492000Y-106548597D01*
X111498505Y-106609093D01*
X111549555Y-106745964D01*
X111549555Y-106745965D01*
X111637095Y-106862904D01*
X111754034Y-106950444D01*
X111890906Y-107001494D01*
X111951402Y-107007999D01*
X111951415Y-107008000D01*
X112596000Y-107008000D01*
X112596000Y-106083674D01*
X112707685Y-106134680D01*
X112814237Y-106150000D01*
X112885763Y-106150000D01*
X112992315Y-106134680D01*
X113104000Y-106083674D01*
X113104000Y-107008000D01*
X113737164Y-107008000D01*
X113805285Y-107028002D01*
X113851778Y-107081658D01*
X113862371Y-107148106D01*
X113854384Y-107219000D01*
X113874783Y-107400047D01*
X113874783Y-107400049D01*
X113874784Y-107400050D01*
X113934956Y-107572013D01*
X114001030Y-107677170D01*
X114020335Y-107745492D01*
X113999639Y-107813405D01*
X113945512Y-107859348D01*
X113875139Y-107868734D01*
X113854713Y-107863811D01*
X113828456Y-107855111D01*
X113822427Y-107853113D01*
X113822420Y-107853112D01*
X113718553Y-107842500D01*
X111617455Y-107842500D01*
X111513574Y-107853112D01*
X111345261Y-107908885D01*
X111194347Y-108001970D01*
X111194341Y-108001975D01*
X111068975Y-108127341D01*
X111068970Y-108127347D01*
X110975885Y-108278262D01*
X110920113Y-108446572D01*
X110920112Y-108446579D01*
X110909500Y-108550446D01*
X110909500Y-109951544D01*
X110920112Y-110055425D01*
X110975885Y-110223738D01*
X111068970Y-110374652D01*
X111068975Y-110374658D01*
X111194341Y-110500024D01*
X111194347Y-110500029D01*
X111194348Y-110500030D01*
X111345262Y-110593115D01*
X111513574Y-110648887D01*
X111617455Y-110659500D01*
X113718544Y-110659499D01*
X113718546Y-110659499D01*
X113719509Y-110659450D01*
X113719713Y-110659499D01*
X113721752Y-110659499D01*
X113721752Y-110659986D01*
X113788559Y-110675962D01*
X113815011Y-110696192D01*
X114119795Y-111000976D01*
X114153821Y-111063288D01*
X114148756Y-111134103D01*
X114106209Y-111190939D01*
X114039689Y-111215750D01*
X113986667Y-111208126D01*
X113895204Y-111174011D01*
X113895196Y-111174009D01*
X113834649Y-111167500D01*
X113834638Y-111167500D01*
X112737362Y-111167500D01*
X112737350Y-111167500D01*
X112676804Y-111174009D01*
X112669133Y-111175823D01*
X112668613Y-111173624D01*
X112609201Y-111177866D01*
X112599672Y-111175068D01*
X112595195Y-111174009D01*
X112534649Y-111167500D01*
X112534638Y-111167500D01*
X111437362Y-111167500D01*
X111437350Y-111167500D01*
X111376803Y-111174009D01*
X111376795Y-111174011D01*
X111239797Y-111225110D01*
X111239792Y-111225112D01*
X111122738Y-111312738D01*
X111035112Y-111429792D01*
X111035110Y-111429797D01*
X110984011Y-111566795D01*
X110984009Y-111566803D01*
X110977500Y-111627350D01*
X110977500Y-112309628D01*
X110957498Y-112377749D01*
X110940599Y-112398718D01*
X110598516Y-112740802D01*
X110282544Y-113056774D01*
X110220232Y-113090799D01*
X110149416Y-113085734D01*
X110100750Y-113053017D01*
X110003240Y-112947094D01*
X110003239Y-112947093D01*
X110003237Y-112947091D01*
X109843163Y-112822500D01*
X109825576Y-112808811D01*
X109792319Y-112790813D01*
X109741929Y-112740802D01*
X109726576Y-112671485D01*
X109751136Y-112604872D01*
X109792320Y-112569186D01*
X109825576Y-112551189D01*
X110003240Y-112412906D01*
X110155722Y-112247268D01*
X110278860Y-112058791D01*
X110369296Y-111852616D01*
X110424564Y-111634368D01*
X110443156Y-111410000D01*
X110424564Y-111185632D01*
X110393582Y-111063288D01*
X110369297Y-110967387D01*
X110369296Y-110967386D01*
X110369296Y-110967384D01*
X110278860Y-110761209D01*
X110248712Y-110715064D01*
X110155724Y-110572734D01*
X110155720Y-110572729D01*
X110027076Y-110432987D01*
X110003240Y-110407094D01*
X110003239Y-110407093D01*
X110003237Y-110407091D01*
X109897620Y-110324886D01*
X109825576Y-110268811D01*
X109792319Y-110250813D01*
X109741929Y-110200802D01*
X109726576Y-110131485D01*
X109751136Y-110064872D01*
X109792320Y-110029186D01*
X109792326Y-110029183D01*
X109825576Y-110011189D01*
X110003240Y-109872906D01*
X110155722Y-109707268D01*
X110278860Y-109518791D01*
X110369296Y-109312616D01*
X110424564Y-109094368D01*
X110443156Y-108870000D01*
X110424564Y-108645632D01*
X110381266Y-108474652D01*
X110369297Y-108427387D01*
X110369296Y-108427386D01*
X110369296Y-108427384D01*
X110278860Y-108221209D01*
X110212490Y-108119622D01*
X110155724Y-108032734D01*
X110155720Y-108032729D01*
X110037214Y-107903999D01*
X110003240Y-107867094D01*
X110003239Y-107867093D01*
X110003237Y-107867091D01*
X109890432Y-107779291D01*
X109825576Y-107728811D01*
X109825572Y-107728808D01*
X109825571Y-107728808D01*
X109825569Y-107728807D01*
X109792318Y-107710812D01*
X109741928Y-107660798D01*
X109726576Y-107591481D01*
X109751137Y-107524869D01*
X109792315Y-107489188D01*
X109825576Y-107471189D01*
X110003240Y-107332906D01*
X110155722Y-107167268D01*
X110278860Y-106978791D01*
X110369296Y-106772616D01*
X110424564Y-106554368D01*
X110443156Y-106330000D01*
X110424564Y-106105632D01*
X110369296Y-105887384D01*
X110278860Y-105681209D01*
X110211503Y-105578111D01*
X110155724Y-105492734D01*
X110155720Y-105492729D01*
X110003237Y-105327091D01*
X109921382Y-105263381D01*
X109825576Y-105188811D01*
X109792319Y-105170813D01*
X109741929Y-105120802D01*
X109726576Y-105051485D01*
X109751136Y-104984872D01*
X109792320Y-104949186D01*
X109825576Y-104931189D01*
X110003240Y-104792906D01*
X110155722Y-104627268D01*
X110278860Y-104438791D01*
X110369296Y-104232616D01*
X110424564Y-104014368D01*
X110443156Y-103790000D01*
X110424564Y-103565632D01*
X110369296Y-103347384D01*
X110278860Y-103141209D01*
X110272140Y-103130924D01*
X110155724Y-102952734D01*
X110155720Y-102952729D01*
X110003237Y-102787091D01*
X109921382Y-102723381D01*
X109825576Y-102648811D01*
X109627574Y-102541658D01*
X109627572Y-102541657D01*
X109627571Y-102541656D01*
X109414639Y-102468557D01*
X109414630Y-102468555D01*
X109370476Y-102461187D01*
X109192569Y-102431500D01*
X108967431Y-102431500D01*
X108819211Y-102456233D01*
X108745369Y-102468555D01*
X108745360Y-102468557D01*
X108532428Y-102541656D01*
X108532426Y-102541658D01*
X108334426Y-102648810D01*
X108334424Y-102648811D01*
X108156762Y-102787091D01*
X108004279Y-102952729D01*
X108004275Y-102952734D01*
X107881141Y-103141206D01*
X107790703Y-103347386D01*
X107790702Y-103347387D01*
X107735437Y-103565624D01*
X107716844Y-103790000D01*
X107735437Y-104014375D01*
X107790702Y-104232612D01*
X107790703Y-104232613D01*
X107790704Y-104232616D01*
X107841998Y-104349555D01*
X107881141Y-104438793D01*
X108004275Y-104627265D01*
X108004279Y-104627270D01*
X108156762Y-104792908D01*
X108211331Y-104835381D01*
X108334424Y-104931189D01*
X108367680Y-104949186D01*
X108418071Y-104999200D01*
X108433423Y-105068516D01*
X108408862Y-105135129D01*
X108367680Y-105170813D01*
X108334426Y-105188810D01*
X108334424Y-105188811D01*
X108156762Y-105327091D01*
X108004279Y-105492729D01*
X108004275Y-105492734D01*
X107881141Y-105681206D01*
X107790703Y-105887386D01*
X107790702Y-105887387D01*
X107735437Y-106105624D01*
X107735436Y-106105630D01*
X107735436Y-106105632D01*
X107719430Y-106298791D01*
X107716844Y-106330000D01*
X107735437Y-106554375D01*
X107790702Y-106772612D01*
X107790703Y-106772613D01*
X107790704Y-106772616D01*
X107877917Y-106971444D01*
X107881141Y-106978793D01*
X108004275Y-107167265D01*
X108004279Y-107167270D01*
X108156762Y-107332908D01*
X108211331Y-107375381D01*
X108334424Y-107471189D01*
X108367680Y-107489186D01*
X108418070Y-107539196D01*
X108433423Y-107608513D01*
X108408864Y-107675126D01*
X108367683Y-107710811D01*
X108334430Y-107728807D01*
X108334429Y-107728808D01*
X108334427Y-107728808D01*
X108334424Y-107728811D01*
X108289089Y-107764097D01*
X108156762Y-107867091D01*
X108004279Y-108032729D01*
X108004275Y-108032734D01*
X107881141Y-108221206D01*
X107790703Y-108427386D01*
X107790702Y-108427387D01*
X107735437Y-108645624D01*
X107716844Y-108869999D01*
X107735437Y-109094375D01*
X107790702Y-109312612D01*
X107790703Y-109312613D01*
X107881141Y-109518793D01*
X108004275Y-109707265D01*
X108004279Y-109707270D01*
X108156762Y-109872908D01*
X108211331Y-109915381D01*
X108334424Y-110011189D01*
X108367674Y-110029183D01*
X108367680Y-110029186D01*
X108418071Y-110079200D01*
X108433423Y-110148516D01*
X108408862Y-110215129D01*
X108367680Y-110250813D01*
X108334426Y-110268810D01*
X108334424Y-110268811D01*
X108156762Y-110407091D01*
X108004279Y-110572729D01*
X108004275Y-110572734D01*
X107881141Y-110761206D01*
X107790703Y-110967386D01*
X107790702Y-110967387D01*
X107735437Y-111185624D01*
X107735436Y-111185630D01*
X107735436Y-111185632D01*
X107716844Y-111410000D01*
X107734855Y-111627362D01*
X107735437Y-111634375D01*
X107790702Y-111852612D01*
X107790703Y-111852613D01*
X107790704Y-111852616D01*
X107876343Y-112047855D01*
X107881141Y-112058793D01*
X108004275Y-112247265D01*
X108004279Y-112247270D01*
X108156762Y-112412908D01*
X108189499Y-112438388D01*
X108334424Y-112551189D01*
X108367680Y-112569186D01*
X108418071Y-112619200D01*
X108433423Y-112688516D01*
X108408862Y-112755129D01*
X108367680Y-112790813D01*
X108334426Y-112808810D01*
X108334424Y-112808811D01*
X108156762Y-112947091D01*
X108004279Y-113112729D01*
X108004275Y-113112734D01*
X107881141Y-113301206D01*
X107790703Y-113507386D01*
X107790702Y-113507387D01*
X107735437Y-113725624D01*
X107735436Y-113725630D01*
X107735436Y-113725632D01*
X107716844Y-113950000D01*
X107732941Y-114144262D01*
X107735437Y-114174375D01*
X107790702Y-114392612D01*
X107790703Y-114392613D01*
X107790704Y-114392616D01*
X107871015Y-114575708D01*
X107881141Y-114598793D01*
X108004275Y-114787265D01*
X108004279Y-114787270D01*
X108156762Y-114952908D01*
X108211331Y-114995381D01*
X108334424Y-115091189D01*
X108367680Y-115109186D01*
X108418071Y-115159200D01*
X108433423Y-115228516D01*
X108408862Y-115295129D01*
X108367680Y-115330813D01*
X108334426Y-115348810D01*
X108334424Y-115348811D01*
X108156762Y-115487091D01*
X108004279Y-115652729D01*
X108004273Y-115652738D01*
X107955686Y-115727105D01*
X107901683Y-115773193D01*
X107831335Y-115782768D01*
X107766977Y-115752790D01*
X107749336Y-115733698D01*
X107672261Y-115630738D01*
X107555207Y-115543112D01*
X107555202Y-115543110D01*
X107418204Y-115492011D01*
X107418196Y-115492009D01*
X107357649Y-115485500D01*
X107357638Y-115485500D01*
X106260362Y-115485500D01*
X106260350Y-115485500D01*
X106199804Y-115492009D01*
X106192133Y-115493823D01*
X106191663Y-115491836D01*
X106131486Y-115496133D01*
X106123398Y-115493758D01*
X106118096Y-115492505D01*
X106057597Y-115486000D01*
X105763000Y-115486000D01*
X105763000Y-118002000D01*
X105255000Y-118002000D01*
X105255000Y-116998000D01*
X104501000Y-116998000D01*
X104075500Y-116998000D01*
X104075500Y-116490000D01*
X104501000Y-116490000D01*
X105255000Y-116490000D01*
X105255000Y-115486000D01*
X104960402Y-115486000D01*
X104899906Y-115492505D01*
X104763035Y-115543555D01*
X104763034Y-115543555D01*
X104646095Y-115631095D01*
X104558555Y-115748034D01*
X104558555Y-115748035D01*
X104507505Y-115884906D01*
X104501000Y-115945402D01*
X104501000Y-116490000D01*
X104075500Y-116490000D01*
X104075500Y-98711901D01*
X104075557Y-98709999D01*
X105184341Y-98709999D01*
X105204937Y-98945411D01*
X105266096Y-99173661D01*
X105266098Y-99173665D01*
X105365966Y-99387832D01*
X105501498Y-99581392D01*
X105501502Y-99581397D01*
X105501505Y-99581401D01*
X105668599Y-99748495D01*
X105668603Y-99748498D01*
X105668607Y-99748501D01*
X105862167Y-99884033D01*
X105862166Y-99884033D01*
X105938304Y-99919536D01*
X106076337Y-99983903D01*
X106304592Y-100045063D01*
X106481034Y-100060500D01*
X106481041Y-100060500D01*
X106598959Y-100060500D01*
X106598966Y-100060500D01*
X106775408Y-100045063D01*
X107003663Y-99983903D01*
X107217829Y-99884035D01*
X107411401Y-99748495D01*
X107578495Y-99581401D01*
X107714035Y-99387830D01*
X107813903Y-99173663D01*
X107875063Y-98945408D01*
X107895659Y-98710000D01*
X107895659Y-98709999D01*
X125504341Y-98709999D01*
X125524937Y-98945411D01*
X125586096Y-99173661D01*
X125586098Y-99173665D01*
X125685966Y-99387832D01*
X125821498Y-99581392D01*
X125821502Y-99581397D01*
X125821505Y-99581401D01*
X125988599Y-99748495D01*
X125988603Y-99748498D01*
X125988607Y-99748501D01*
X126182167Y-99884033D01*
X126182166Y-99884033D01*
X126258304Y-99919536D01*
X126396337Y-99983903D01*
X126624592Y-100045063D01*
X126801034Y-100060500D01*
X126801041Y-100060500D01*
X126918959Y-100060500D01*
X126918966Y-100060500D01*
X127095408Y-100045063D01*
X127323663Y-99983903D01*
X127537829Y-99884035D01*
X127731401Y-99748495D01*
X127898495Y-99581401D01*
X128034035Y-99387830D01*
X128133903Y-99173663D01*
X128195063Y-98945408D01*
X128215659Y-98710000D01*
X128195063Y-98474592D01*
X128133903Y-98246337D01*
X128034035Y-98032171D01*
X128034034Y-98032169D01*
X128034033Y-98032167D01*
X127898501Y-97838607D01*
X127898497Y-97838602D01*
X127898495Y-97838599D01*
X127731401Y-97671505D01*
X127731397Y-97671502D01*
X127731392Y-97671498D01*
X127537832Y-97535966D01*
X127537833Y-97535966D01*
X127323665Y-97436098D01*
X127323661Y-97436096D01*
X127095411Y-97374937D01*
X127042475Y-97370305D01*
X126918966Y-97359500D01*
X126801034Y-97359500D01*
X126688752Y-97369323D01*
X126624588Y-97374937D01*
X126396338Y-97436096D01*
X126396334Y-97436098D01*
X126182167Y-97535966D01*
X125988607Y-97671498D01*
X125988596Y-97671507D01*
X125821507Y-97838596D01*
X125821502Y-97838602D01*
X125685965Y-98032169D01*
X125586098Y-98246334D01*
X125586096Y-98246338D01*
X125524937Y-98474588D01*
X125504341Y-98709999D01*
X107895659Y-98709999D01*
X107875063Y-98474592D01*
X107813903Y-98246337D01*
X107714035Y-98032171D01*
X107714034Y-98032169D01*
X107714033Y-98032167D01*
X107578501Y-97838607D01*
X107578497Y-97838602D01*
X107578495Y-97838599D01*
X107411401Y-97671505D01*
X107411397Y-97671502D01*
X107411392Y-97671498D01*
X107217832Y-97535966D01*
X107217833Y-97535966D01*
X107003665Y-97436098D01*
X107003661Y-97436096D01*
X106775411Y-97374937D01*
X106722475Y-97370305D01*
X106598966Y-97359500D01*
X106481034Y-97359500D01*
X106368752Y-97369323D01*
X106304588Y-97374937D01*
X106076338Y-97436096D01*
X106076334Y-97436098D01*
X105862167Y-97535966D01*
X105668607Y-97671498D01*
X105668596Y-97671507D01*
X105501507Y-97838596D01*
X105501502Y-97838602D01*
X105365965Y-98032169D01*
X105266098Y-98246334D01*
X105266096Y-98246338D01*
X105204937Y-98474588D01*
X105184341Y-98709999D01*
X104075557Y-98709999D01*
X104075615Y-98708096D01*
X104077162Y-98682519D01*
X104093239Y-98416732D01*
X104094154Y-98409194D01*
X104146429Y-98123940D01*
X104148242Y-98116586D01*
X104234520Y-97839708D01*
X104237209Y-97832615D01*
X104356232Y-97568160D01*
X104359765Y-97561430D01*
X104435530Y-97436098D01*
X104509788Y-97313257D01*
X104514097Y-97307015D01*
X104692954Y-97078721D01*
X104697979Y-97073049D01*
X104903049Y-96867979D01*
X104908721Y-96862954D01*
X105137015Y-96684097D01*
X105143257Y-96679788D01*
X105331162Y-96566197D01*
X105391430Y-96529765D01*
X105398160Y-96526232D01*
X105662615Y-96407209D01*
X105669708Y-96404520D01*
X105946586Y-96318242D01*
X105953940Y-96316429D01*
X106239194Y-96264154D01*
X106246732Y-96263239D01*
X106538096Y-96245614D01*
X106541893Y-96245500D01*
X126815019Y-96247237D01*
G37*
G04 #@! TD.AperFunction*
M02*
