G04 #@! TF.GenerationSoftware,KiCad,Pcbnew,7.0.5-0*
G04 #@! TF.CreationDate,2024-01-10T22:08:28+09:00*
G04 #@! TF.ProjectId,Misawa_DistanceSensor,4d697361-7761-45f4-9469-7374616e6365,v0.3*
G04 #@! TF.SameCoordinates,Original*
G04 #@! TF.FileFunction,Legend,Bot*
G04 #@! TF.FilePolarity,Positive*
%FSLAX46Y46*%
G04 Gerber Fmt 4.6, Leading zero omitted, Abs format (unit mm)*
G04 Created by KiCad (PCBNEW 7.0.5-0) date 2024-01-10 22:08:28*
%MOMM*%
%LPD*%
G01*
G04 APERTURE LIST*
G04 Aperture macros list*
%AMRoundRect*
0 Rectangle with rounded corners*
0 $1 Rounding radius*
0 $2 $3 $4 $5 $6 $7 $8 $9 X,Y pos of 4 corners*
0 Add a 4 corners polygon primitive as box body*
4,1,4,$2,$3,$4,$5,$6,$7,$8,$9,$2,$3,0*
0 Add four circle primitives for the rounded corners*
1,1,$1+$1,$2,$3*
1,1,$1+$1,$4,$5*
1,1,$1+$1,$6,$7*
1,1,$1+$1,$8,$9*
0 Add four rect primitives between the rounded corners*
20,1,$1+$1,$2,$3,$4,$5,0*
20,1,$1+$1,$4,$5,$6,$7,0*
20,1,$1+$1,$6,$7,$8,$9,0*
20,1,$1+$1,$8,$9,$2,$3,0*%
G04 Aperture macros list end*
%ADD10C,0.150000*%
%ADD11C,0.100000*%
%ADD12C,0.120000*%
%ADD13C,0.500000*%
%ADD14C,2.600000*%
%ADD15RoundRect,0.200000X-0.850000X-0.850000X0.850000X-0.850000X0.850000X0.850000X-0.850000X0.850000X0*%
%ADD16O,2.100000X2.100000*%
%ADD17RoundRect,0.400000X-0.200000X-0.275000X0.200000X-0.275000X0.200000X0.275000X-0.200000X0.275000X0*%
%ADD18RoundRect,0.200000X0.500000X0.750000X-0.500000X0.750000X-0.500000X-0.750000X0.500000X-0.750000X0*%
%ADD19RoundRect,0.425000X-0.225000X-0.250000X0.225000X-0.250000X0.225000X0.250000X-0.225000X0.250000X0*%
%ADD20RoundRect,0.450000X-1.000000X-0.650000X1.000000X-0.650000X1.000000X0.650000X-1.000000X0.650000X0*%
%ADD21RoundRect,0.400000X0.200000X0.275000X-0.200000X0.275000X-0.200000X-0.275000X0.200000X-0.275000X0*%
%ADD22RoundRect,0.400000X-0.275000X0.200000X-0.275000X-0.200000X0.275000X-0.200000X0.275000X0.200000X0*%
%ADD23RoundRect,0.350000X0.587500X0.150000X-0.587500X0.150000X-0.587500X-0.150000X0.587500X-0.150000X0*%
%ADD24RoundRect,0.200000X-0.850000X0.850000X-0.850000X-0.850000X0.850000X-0.850000X0.850000X0.850000X0*%
%ADD25RoundRect,0.200000X-0.625000X-1.525000X0.625000X-1.525000X0.625000X1.525000X-0.625000X1.525000X0*%
G04 APERTURE END LIST*
D10*
X125336000Y-112553000D02*
X123177000Y-112553000D01*
X108318000Y-115220000D02*
X111239000Y-115220000D01*
X107429000Y-113823000D02*
X108318000Y-115220000D01*
X108318000Y-112680000D02*
X111112000Y-112680000D01*
X122542000Y-110902000D02*
X123558000Y-110140000D01*
X125209000Y-110140000D02*
X123558000Y-110140000D01*
X123177000Y-112553000D02*
X122542000Y-112807000D01*
X107556000Y-111664000D02*
X108318000Y-112680000D01*
X125082000Y-107600000D02*
X123304000Y-107600000D01*
X123304000Y-107600000D02*
X122796000Y-108108000D01*
D11*
X121176832Y-116092895D02*
X121443499Y-115711942D01*
X121633975Y-116092895D02*
X121633975Y-115292895D01*
X121633975Y-115292895D02*
X121329213Y-115292895D01*
X121329213Y-115292895D02*
X121253023Y-115330990D01*
X121253023Y-115330990D02*
X121214928Y-115369085D01*
X121214928Y-115369085D02*
X121176832Y-115445276D01*
X121176832Y-115445276D02*
X121176832Y-115559561D01*
X121176832Y-115559561D02*
X121214928Y-115635752D01*
X121214928Y-115635752D02*
X121253023Y-115673847D01*
X121253023Y-115673847D02*
X121329213Y-115711942D01*
X121329213Y-115711942D02*
X121633975Y-115711942D01*
X120414928Y-116092895D02*
X120872071Y-116092895D01*
X120643499Y-116092895D02*
X120643499Y-115292895D01*
X120643499Y-115292895D02*
X120719690Y-115407180D01*
X120719690Y-115407180D02*
X120795880Y-115483371D01*
X120795880Y-115483371D02*
X120872071Y-115521466D01*
X126358332Y-113044895D02*
X126624999Y-112663942D01*
X126815475Y-113044895D02*
X126815475Y-112244895D01*
X126815475Y-112244895D02*
X126510713Y-112244895D01*
X126510713Y-112244895D02*
X126434523Y-112282990D01*
X126434523Y-112282990D02*
X126396428Y-112321085D01*
X126396428Y-112321085D02*
X126358332Y-112397276D01*
X126358332Y-112397276D02*
X126358332Y-112511561D01*
X126358332Y-112511561D02*
X126396428Y-112587752D01*
X126396428Y-112587752D02*
X126434523Y-112625847D01*
X126434523Y-112625847D02*
X126510713Y-112663942D01*
X126510713Y-112663942D02*
X126815475Y-112663942D01*
X126053571Y-112321085D02*
X126015475Y-112282990D01*
X126015475Y-112282990D02*
X125939285Y-112244895D01*
X125939285Y-112244895D02*
X125748809Y-112244895D01*
X125748809Y-112244895D02*
X125672618Y-112282990D01*
X125672618Y-112282990D02*
X125634523Y-112321085D01*
X125634523Y-112321085D02*
X125596428Y-112397276D01*
X125596428Y-112397276D02*
X125596428Y-112473466D01*
X125596428Y-112473466D02*
X125634523Y-112587752D01*
X125634523Y-112587752D02*
X126091666Y-113044895D01*
X126091666Y-113044895D02*
X125596428Y-113044895D01*
X107060571Y-110720895D02*
X107060571Y-111292323D01*
X107060571Y-111292323D02*
X107098666Y-111406609D01*
X107098666Y-111406609D02*
X107174857Y-111482800D01*
X107174857Y-111482800D02*
X107289142Y-111520895D01*
X107289142Y-111520895D02*
X107365333Y-111520895D01*
X106755809Y-110720895D02*
X106222475Y-111520895D01*
X106222475Y-110720895D02*
X106755809Y-111520895D01*
X105955809Y-110797085D02*
X105917713Y-110758990D01*
X105917713Y-110758990D02*
X105841523Y-110720895D01*
X105841523Y-110720895D02*
X105651047Y-110720895D01*
X105651047Y-110720895D02*
X105574856Y-110758990D01*
X105574856Y-110758990D02*
X105536761Y-110797085D01*
X105536761Y-110797085D02*
X105498666Y-110873276D01*
X105498666Y-110873276D02*
X105498666Y-110949466D01*
X105498666Y-110949466D02*
X105536761Y-111063752D01*
X105536761Y-111063752D02*
X105993904Y-111520895D01*
X105993904Y-111520895D02*
X105498666Y-111520895D01*
X105193904Y-110797085D02*
X105155808Y-110758990D01*
X105155808Y-110758990D02*
X105079618Y-110720895D01*
X105079618Y-110720895D02*
X104889142Y-110720895D01*
X104889142Y-110720895D02*
X104812951Y-110758990D01*
X104812951Y-110758990D02*
X104774856Y-110797085D01*
X104774856Y-110797085D02*
X104736761Y-110873276D01*
X104736761Y-110873276D02*
X104736761Y-110949466D01*
X104736761Y-110949466D02*
X104774856Y-111063752D01*
X104774856Y-111063752D02*
X105231999Y-111520895D01*
X105231999Y-111520895D02*
X104736761Y-111520895D01*
X119500332Y-116600895D02*
X119766999Y-116219942D01*
X119957475Y-116600895D02*
X119957475Y-115800895D01*
X119957475Y-115800895D02*
X119652713Y-115800895D01*
X119652713Y-115800895D02*
X119576523Y-115838990D01*
X119576523Y-115838990D02*
X119538428Y-115877085D01*
X119538428Y-115877085D02*
X119500332Y-115953276D01*
X119500332Y-115953276D02*
X119500332Y-116067561D01*
X119500332Y-116067561D02*
X119538428Y-116143752D01*
X119538428Y-116143752D02*
X119576523Y-116181847D01*
X119576523Y-116181847D02*
X119652713Y-116219942D01*
X119652713Y-116219942D02*
X119957475Y-116219942D01*
X119233666Y-115800895D02*
X118738428Y-115800895D01*
X118738428Y-115800895D02*
X119005094Y-116105657D01*
X119005094Y-116105657D02*
X118890809Y-116105657D01*
X118890809Y-116105657D02*
X118814618Y-116143752D01*
X118814618Y-116143752D02*
X118776523Y-116181847D01*
X118776523Y-116181847D02*
X118738428Y-116258038D01*
X118738428Y-116258038D02*
X118738428Y-116448514D01*
X118738428Y-116448514D02*
X118776523Y-116524704D01*
X118776523Y-116524704D02*
X118814618Y-116562800D01*
X118814618Y-116562800D02*
X118890809Y-116600895D01*
X118890809Y-116600895D02*
X119119380Y-116600895D01*
X119119380Y-116600895D02*
X119195571Y-116562800D01*
X119195571Y-116562800D02*
X119233666Y-116524704D01*
X119500332Y-117667704D02*
X119538428Y-117705800D01*
X119538428Y-117705800D02*
X119652713Y-117743895D01*
X119652713Y-117743895D02*
X119728904Y-117743895D01*
X119728904Y-117743895D02*
X119843190Y-117705800D01*
X119843190Y-117705800D02*
X119919380Y-117629609D01*
X119919380Y-117629609D02*
X119957475Y-117553419D01*
X119957475Y-117553419D02*
X119995571Y-117401038D01*
X119995571Y-117401038D02*
X119995571Y-117286752D01*
X119995571Y-117286752D02*
X119957475Y-117134371D01*
X119957475Y-117134371D02*
X119919380Y-117058180D01*
X119919380Y-117058180D02*
X119843190Y-116981990D01*
X119843190Y-116981990D02*
X119728904Y-116943895D01*
X119728904Y-116943895D02*
X119652713Y-116943895D01*
X119652713Y-116943895D02*
X119538428Y-116981990D01*
X119538428Y-116981990D02*
X119500332Y-117020085D01*
X118738428Y-117743895D02*
X119195571Y-117743895D01*
X118966999Y-117743895D02*
X118966999Y-116943895D01*
X118966999Y-116943895D02*
X119043190Y-117058180D01*
X119043190Y-117058180D02*
X119119380Y-117134371D01*
X119119380Y-117134371D02*
X119195571Y-117172466D01*
X113156571Y-118721895D02*
X113156571Y-119293323D01*
X113156571Y-119293323D02*
X113194666Y-119407609D01*
X113194666Y-119407609D02*
X113270857Y-119483800D01*
X113270857Y-119483800D02*
X113385142Y-119521895D01*
X113385142Y-119521895D02*
X113461333Y-119521895D01*
X112851809Y-118721895D02*
X112318475Y-119521895D01*
X112318475Y-118721895D02*
X112851809Y-119521895D01*
X112051809Y-118798085D02*
X112013713Y-118759990D01*
X112013713Y-118759990D02*
X111937523Y-118721895D01*
X111937523Y-118721895D02*
X111747047Y-118721895D01*
X111747047Y-118721895D02*
X111670856Y-118759990D01*
X111670856Y-118759990D02*
X111632761Y-118798085D01*
X111632761Y-118798085D02*
X111594666Y-118874276D01*
X111594666Y-118874276D02*
X111594666Y-118950466D01*
X111594666Y-118950466D02*
X111632761Y-119064752D01*
X111632761Y-119064752D02*
X112089904Y-119521895D01*
X112089904Y-119521895D02*
X111594666Y-119521895D01*
X110832761Y-119521895D02*
X111289904Y-119521895D01*
X111061332Y-119521895D02*
X111061332Y-118721895D01*
X111061332Y-118721895D02*
X111137523Y-118836180D01*
X111137523Y-118836180D02*
X111213713Y-118912371D01*
X111213713Y-118912371D02*
X111289904Y-118950466D01*
X106895476Y-113006895D02*
X106895476Y-113578323D01*
X106895476Y-113578323D02*
X106933571Y-113692609D01*
X106933571Y-113692609D02*
X107009762Y-113768800D01*
X107009762Y-113768800D02*
X107124047Y-113806895D01*
X107124047Y-113806895D02*
X107200238Y-113806895D01*
X106552619Y-113578323D02*
X106171666Y-113578323D01*
X106628809Y-113806895D02*
X106362142Y-113006895D01*
X106362142Y-113006895D02*
X106095476Y-113806895D01*
X105409762Y-113806895D02*
X105866905Y-113806895D01*
X105638333Y-113806895D02*
X105638333Y-113006895D01*
X105638333Y-113006895D02*
X105714524Y-113121180D01*
X105714524Y-113121180D02*
X105790714Y-113197371D01*
X105790714Y-113197371D02*
X105866905Y-113235466D01*
X104647857Y-113806895D02*
X105105000Y-113806895D01*
X104876428Y-113806895D02*
X104876428Y-113006895D01*
X104876428Y-113006895D02*
X104952619Y-113121180D01*
X104952619Y-113121180D02*
X105028809Y-113197371D01*
X105028809Y-113197371D02*
X105105000Y-113235466D01*
X119322475Y-108218895D02*
X119322475Y-107418895D01*
X119322475Y-107418895D02*
X119131999Y-107418895D01*
X119131999Y-107418895D02*
X119017713Y-107456990D01*
X119017713Y-107456990D02*
X118941523Y-107533180D01*
X118941523Y-107533180D02*
X118903428Y-107609371D01*
X118903428Y-107609371D02*
X118865332Y-107761752D01*
X118865332Y-107761752D02*
X118865332Y-107876038D01*
X118865332Y-107876038D02*
X118903428Y-108028419D01*
X118903428Y-108028419D02*
X118941523Y-108104609D01*
X118941523Y-108104609D02*
X119017713Y-108180800D01*
X119017713Y-108180800D02*
X119131999Y-108218895D01*
X119131999Y-108218895D02*
X119322475Y-108218895D01*
X118103428Y-108218895D02*
X118560571Y-108218895D01*
X118331999Y-108218895D02*
X118331999Y-107418895D01*
X118331999Y-107418895D02*
X118408190Y-107533180D01*
X118408190Y-107533180D02*
X118484380Y-107609371D01*
X118484380Y-107609371D02*
X118560571Y-107647466D01*
X126231332Y-110504895D02*
X126497999Y-110123942D01*
X126688475Y-110504895D02*
X126688475Y-109704895D01*
X126688475Y-109704895D02*
X126383713Y-109704895D01*
X126383713Y-109704895D02*
X126307523Y-109742990D01*
X126307523Y-109742990D02*
X126269428Y-109781085D01*
X126269428Y-109781085D02*
X126231332Y-109857276D01*
X126231332Y-109857276D02*
X126231332Y-109971561D01*
X126231332Y-109971561D02*
X126269428Y-110047752D01*
X126269428Y-110047752D02*
X126307523Y-110085847D01*
X126307523Y-110085847D02*
X126383713Y-110123942D01*
X126383713Y-110123942D02*
X126688475Y-110123942D01*
X125545618Y-109971561D02*
X125545618Y-110504895D01*
X125736094Y-109666800D02*
X125926571Y-110238228D01*
X125926571Y-110238228D02*
X125431332Y-110238228D01*
X126716895Y-116864667D02*
X126335942Y-116598000D01*
X126716895Y-116407524D02*
X125916895Y-116407524D01*
X125916895Y-116407524D02*
X125916895Y-116712286D01*
X125916895Y-116712286D02*
X125954990Y-116788476D01*
X125954990Y-116788476D02*
X125993085Y-116826571D01*
X125993085Y-116826571D02*
X126069276Y-116864667D01*
X126069276Y-116864667D02*
X126183561Y-116864667D01*
X126183561Y-116864667D02*
X126259752Y-116826571D01*
X126259752Y-116826571D02*
X126297847Y-116788476D01*
X126297847Y-116788476D02*
X126335942Y-116712286D01*
X126335942Y-116712286D02*
X126335942Y-116407524D01*
X125916895Y-117588476D02*
X125916895Y-117207524D01*
X125916895Y-117207524D02*
X126297847Y-117169428D01*
X126297847Y-117169428D02*
X126259752Y-117207524D01*
X126259752Y-117207524D02*
X126221657Y-117283714D01*
X126221657Y-117283714D02*
X126221657Y-117474190D01*
X126221657Y-117474190D02*
X126259752Y-117550381D01*
X126259752Y-117550381D02*
X126297847Y-117588476D01*
X126297847Y-117588476D02*
X126374038Y-117626571D01*
X126374038Y-117626571D02*
X126564514Y-117626571D01*
X126564514Y-117626571D02*
X126640704Y-117588476D01*
X126640704Y-117588476D02*
X126678800Y-117550381D01*
X126678800Y-117550381D02*
X126716895Y-117474190D01*
X126716895Y-117474190D02*
X126716895Y-117283714D01*
X126716895Y-117283714D02*
X126678800Y-117207524D01*
X126678800Y-117207524D02*
X126640704Y-117169428D01*
X115363085Y-112857809D02*
X115324990Y-112781619D01*
X115324990Y-112781619D02*
X115248800Y-112705428D01*
X115248800Y-112705428D02*
X115134514Y-112591142D01*
X115134514Y-112591142D02*
X115096419Y-112514952D01*
X115096419Y-112514952D02*
X115096419Y-112438761D01*
X115286895Y-112476857D02*
X115248800Y-112400666D01*
X115248800Y-112400666D02*
X115172609Y-112324476D01*
X115172609Y-112324476D02*
X115020228Y-112286380D01*
X115020228Y-112286380D02*
X114753561Y-112286380D01*
X114753561Y-112286380D02*
X114601180Y-112324476D01*
X114601180Y-112324476D02*
X114524990Y-112400666D01*
X114524990Y-112400666D02*
X114486895Y-112476857D01*
X114486895Y-112476857D02*
X114486895Y-112629238D01*
X114486895Y-112629238D02*
X114524990Y-112705428D01*
X114524990Y-112705428D02*
X114601180Y-112781619D01*
X114601180Y-112781619D02*
X114753561Y-112819714D01*
X114753561Y-112819714D02*
X115020228Y-112819714D01*
X115020228Y-112819714D02*
X115172609Y-112781619D01*
X115172609Y-112781619D02*
X115248800Y-112705428D01*
X115248800Y-112705428D02*
X115286895Y-112629238D01*
X115286895Y-112629238D02*
X115286895Y-112476857D01*
X115286895Y-113581618D02*
X115286895Y-113124475D01*
X115286895Y-113353047D02*
X114486895Y-113353047D01*
X114486895Y-113353047D02*
X114601180Y-113276856D01*
X114601180Y-113276856D02*
X114677371Y-113200666D01*
X114677371Y-113200666D02*
X114715466Y-113124475D01*
X107060571Y-114657895D02*
X107060571Y-115229323D01*
X107060571Y-115229323D02*
X107098666Y-115343609D01*
X107098666Y-115343609D02*
X107174857Y-115419800D01*
X107174857Y-115419800D02*
X107289142Y-115457895D01*
X107289142Y-115457895D02*
X107365333Y-115457895D01*
X106755809Y-114657895D02*
X106222475Y-115457895D01*
X106222475Y-114657895D02*
X106755809Y-115457895D01*
X105955809Y-114734085D02*
X105917713Y-114695990D01*
X105917713Y-114695990D02*
X105841523Y-114657895D01*
X105841523Y-114657895D02*
X105651047Y-114657895D01*
X105651047Y-114657895D02*
X105574856Y-114695990D01*
X105574856Y-114695990D02*
X105536761Y-114734085D01*
X105536761Y-114734085D02*
X105498666Y-114810276D01*
X105498666Y-114810276D02*
X105498666Y-114886466D01*
X105498666Y-114886466D02*
X105536761Y-115000752D01*
X105536761Y-115000752D02*
X105993904Y-115457895D01*
X105993904Y-115457895D02*
X105498666Y-115457895D01*
X105003427Y-114657895D02*
X104927237Y-114657895D01*
X104927237Y-114657895D02*
X104851046Y-114695990D01*
X104851046Y-114695990D02*
X104812951Y-114734085D01*
X104812951Y-114734085D02*
X104774856Y-114810276D01*
X104774856Y-114810276D02*
X104736761Y-114962657D01*
X104736761Y-114962657D02*
X104736761Y-115153133D01*
X104736761Y-115153133D02*
X104774856Y-115305514D01*
X104774856Y-115305514D02*
X104812951Y-115381704D01*
X104812951Y-115381704D02*
X104851046Y-115419800D01*
X104851046Y-115419800D02*
X104927237Y-115457895D01*
X104927237Y-115457895D02*
X105003427Y-115457895D01*
X105003427Y-115457895D02*
X105079618Y-115419800D01*
X105079618Y-115419800D02*
X105117713Y-115381704D01*
X105117713Y-115381704D02*
X105155808Y-115305514D01*
X105155808Y-115305514D02*
X105193904Y-115153133D01*
X105193904Y-115153133D02*
X105193904Y-114962657D01*
X105193904Y-114962657D02*
X105155808Y-114810276D01*
X105155808Y-114810276D02*
X105117713Y-114734085D01*
X105117713Y-114734085D02*
X105079618Y-114695990D01*
X105079618Y-114695990D02*
X105003427Y-114657895D01*
X107276476Y-120880895D02*
X107276476Y-121452323D01*
X107276476Y-121452323D02*
X107314571Y-121566609D01*
X107314571Y-121566609D02*
X107390762Y-121642800D01*
X107390762Y-121642800D02*
X107505047Y-121680895D01*
X107505047Y-121680895D02*
X107581238Y-121680895D01*
X106933619Y-121452323D02*
X106552666Y-121452323D01*
X107009809Y-121680895D02*
X106743142Y-120880895D01*
X106743142Y-120880895D02*
X106476476Y-121680895D01*
X105790762Y-121680895D02*
X106247905Y-121680895D01*
X106019333Y-121680895D02*
X106019333Y-120880895D01*
X106019333Y-120880895D02*
X106095524Y-120995180D01*
X106095524Y-120995180D02*
X106171714Y-121071371D01*
X106171714Y-121071371D02*
X106247905Y-121109466D01*
X105295523Y-120880895D02*
X105219333Y-120880895D01*
X105219333Y-120880895D02*
X105143142Y-120918990D01*
X105143142Y-120918990D02*
X105105047Y-120957085D01*
X105105047Y-120957085D02*
X105066952Y-121033276D01*
X105066952Y-121033276D02*
X105028857Y-121185657D01*
X105028857Y-121185657D02*
X105028857Y-121376133D01*
X105028857Y-121376133D02*
X105066952Y-121528514D01*
X105066952Y-121528514D02*
X105105047Y-121604704D01*
X105105047Y-121604704D02*
X105143142Y-121642800D01*
X105143142Y-121642800D02*
X105219333Y-121680895D01*
X105219333Y-121680895D02*
X105295523Y-121680895D01*
X105295523Y-121680895D02*
X105371714Y-121642800D01*
X105371714Y-121642800D02*
X105409809Y-121604704D01*
X105409809Y-121604704D02*
X105447904Y-121528514D01*
X105447904Y-121528514D02*
X105486000Y-121376133D01*
X105486000Y-121376133D02*
X105486000Y-121185657D01*
X105486000Y-121185657D02*
X105447904Y-121033276D01*
X105447904Y-121033276D02*
X105409809Y-120957085D01*
X105409809Y-120957085D02*
X105371714Y-120918990D01*
X105371714Y-120918990D02*
X105295523Y-120880895D01*
X127596476Y-107164895D02*
X127596476Y-107736323D01*
X127596476Y-107736323D02*
X127634571Y-107850609D01*
X127634571Y-107850609D02*
X127710762Y-107926800D01*
X127710762Y-107926800D02*
X127825047Y-107964895D01*
X127825047Y-107964895D02*
X127901238Y-107964895D01*
X127253619Y-107736323D02*
X126872666Y-107736323D01*
X127329809Y-107964895D02*
X127063142Y-107164895D01*
X127063142Y-107164895D02*
X126796476Y-107964895D01*
X126110762Y-107964895D02*
X126567905Y-107964895D01*
X126339333Y-107964895D02*
X126339333Y-107164895D01*
X126339333Y-107164895D02*
X126415524Y-107279180D01*
X126415524Y-107279180D02*
X126491714Y-107355371D01*
X126491714Y-107355371D02*
X126567905Y-107393466D01*
X125806000Y-107241085D02*
X125767904Y-107202990D01*
X125767904Y-107202990D02*
X125691714Y-107164895D01*
X125691714Y-107164895D02*
X125501238Y-107164895D01*
X125501238Y-107164895D02*
X125425047Y-107202990D01*
X125425047Y-107202990D02*
X125386952Y-107241085D01*
X125386952Y-107241085D02*
X125348857Y-107317276D01*
X125348857Y-107317276D02*
X125348857Y-107393466D01*
X125348857Y-107393466D02*
X125386952Y-107507752D01*
X125386952Y-107507752D02*
X125844095Y-107964895D01*
X125844095Y-107964895D02*
X125348857Y-107964895D01*
D10*
X117461904Y-102355819D02*
X117461904Y-103165342D01*
X117461904Y-103165342D02*
X117414285Y-103260580D01*
X117414285Y-103260580D02*
X117366666Y-103308200D01*
X117366666Y-103308200D02*
X117271428Y-103355819D01*
X117271428Y-103355819D02*
X117080952Y-103355819D01*
X117080952Y-103355819D02*
X116985714Y-103308200D01*
X116985714Y-103308200D02*
X116938095Y-103260580D01*
X116938095Y-103260580D02*
X116890476Y-103165342D01*
X116890476Y-103165342D02*
X116890476Y-102355819D01*
X116509523Y-102355819D02*
X115890476Y-102355819D01*
X115890476Y-102355819D02*
X116223809Y-102736771D01*
X116223809Y-102736771D02*
X116080952Y-102736771D01*
X116080952Y-102736771D02*
X115985714Y-102784390D01*
X115985714Y-102784390D02*
X115938095Y-102832009D01*
X115938095Y-102832009D02*
X115890476Y-102927247D01*
X115890476Y-102927247D02*
X115890476Y-103165342D01*
X115890476Y-103165342D02*
X115938095Y-103260580D01*
X115938095Y-103260580D02*
X115985714Y-103308200D01*
X115985714Y-103308200D02*
X116080952Y-103355819D01*
X116080952Y-103355819D02*
X116366666Y-103355819D01*
X116366666Y-103355819D02*
X116461904Y-103308200D01*
X116461904Y-103308200D02*
X116509523Y-103260580D01*
X110654819Y-122922476D02*
X109654819Y-122922476D01*
X109654819Y-122922476D02*
X110369104Y-123255809D01*
X110369104Y-123255809D02*
X109654819Y-123589142D01*
X109654819Y-123589142D02*
X110654819Y-123589142D01*
X110654819Y-124589142D02*
X110654819Y-124017714D01*
X110654819Y-124303428D02*
X109654819Y-124303428D01*
X109654819Y-124303428D02*
X109797676Y-124208190D01*
X109797676Y-124208190D02*
X109892914Y-124112952D01*
X109892914Y-124112952D02*
X109940533Y-124017714D01*
X113688866Y-130101048D02*
X113688866Y-130862953D01*
X119438866Y-130101048D02*
X119438866Y-130862953D01*
X119819819Y-130482000D02*
X119057914Y-130482000D01*
D12*
X120780742Y-113935500D02*
X121255258Y-113935500D01*
X120780742Y-114980500D02*
X121255258Y-114980500D01*
X120780742Y-112411500D02*
X121255258Y-112411500D01*
X120780742Y-113456500D02*
X121255258Y-113456500D01*
X114036000Y-113426000D02*
X114036000Y-111426000D01*
X114036000Y-111426000D02*
X111236000Y-111426000D01*
X111236000Y-113426000D02*
X114036000Y-113426000D01*
X111236000Y-111426000D02*
X111236000Y-113426000D01*
X116843742Y-114824500D02*
X117318258Y-114824500D01*
X116843742Y-115869500D02*
X117318258Y-115869500D01*
X116927420Y-116361000D02*
X117208580Y-116361000D01*
X116927420Y-117381000D02*
X117208580Y-117381000D01*
X114036000Y-118506000D02*
X114036000Y-116506000D01*
X114036000Y-116506000D02*
X111236000Y-116506000D01*
X111236000Y-118506000D02*
X114036000Y-118506000D01*
X111236000Y-116506000D02*
X111236000Y-118506000D01*
X114036000Y-115966000D02*
X114036000Y-113966000D01*
X114036000Y-113966000D02*
X111236000Y-113966000D01*
X111236000Y-115966000D02*
X114036000Y-115966000D01*
X111236000Y-113966000D02*
X111236000Y-115966000D01*
X111158000Y-107601000D02*
X116668000Y-107601000D01*
X111158000Y-110901000D02*
X111158000Y-107601000D01*
X111158000Y-110901000D02*
X116668000Y-110901000D01*
X121255258Y-111932500D02*
X120780742Y-111932500D01*
X121255258Y-110887500D02*
X120780742Y-110887500D01*
X126874500Y-114474742D02*
X126874500Y-114949258D01*
X125829500Y-114474742D02*
X125829500Y-114949258D01*
X117335000Y-114367000D02*
X117985000Y-114367000D01*
X117335000Y-114367000D02*
X116685000Y-114367000D01*
X117335000Y-111247000D02*
X119010000Y-111247000D01*
X117335000Y-111247000D02*
X116685000Y-111247000D01*
X107559000Y-117744000D02*
X107559000Y-115744000D01*
X107559000Y-115744000D02*
X104759000Y-115744000D01*
X104759000Y-117744000D02*
X107559000Y-117744000D01*
X104759000Y-115744000D02*
X104759000Y-117744000D01*
X107574000Y-120792000D02*
X107574000Y-118792000D01*
X107574000Y-118792000D02*
X104774000Y-118792000D01*
X104774000Y-120792000D02*
X107574000Y-120792000D01*
X104774000Y-118792000D02*
X104774000Y-120792000D01*
X122672000Y-110124000D02*
X122672000Y-108124000D01*
X122672000Y-108124000D02*
X119872000Y-108124000D01*
X119872000Y-110124000D02*
X122672000Y-110124000D01*
X119872000Y-108124000D02*
X119872000Y-110124000D01*
X121800000Y-95560000D02*
X121800000Y-104190000D01*
X119200000Y-95560000D02*
X119200000Y-104190000D01*
X116660000Y-95560000D02*
X116660000Y-104190000D01*
X114120000Y-95560000D02*
X114120000Y-104190000D01*
X114001900Y-95560000D02*
X114001900Y-104190000D01*
X113883805Y-95560000D02*
X113883805Y-104190000D01*
X113765710Y-95560000D02*
X113765710Y-104190000D01*
X113647615Y-95560000D02*
X113647615Y-104190000D01*
X113529520Y-95560000D02*
X113529520Y-104190000D01*
X113411425Y-95560000D02*
X113411425Y-104190000D01*
X113293330Y-95560000D02*
X113293330Y-104190000D01*
X113175235Y-95560000D02*
X113175235Y-104190000D01*
X113057140Y-95560000D02*
X113057140Y-104190000D01*
X112939045Y-95560000D02*
X112939045Y-104190000D01*
X112820950Y-95560000D02*
X112820950Y-104190000D01*
X112702855Y-95560000D02*
X112702855Y-104190000D01*
X112584760Y-95560000D02*
X112584760Y-104190000D01*
X112466665Y-95560000D02*
X112466665Y-104190000D01*
X112348570Y-95560000D02*
X112348570Y-104190000D01*
X112230475Y-95560000D02*
X112230475Y-104190000D01*
X112112380Y-95560000D02*
X112112380Y-104190000D01*
X111994285Y-95560000D02*
X111994285Y-104190000D01*
X111876190Y-95560000D02*
X111876190Y-104190000D01*
X111758095Y-95560000D02*
X111758095Y-104190000D01*
X111640000Y-95560000D02*
X111640000Y-104190000D01*
X111520000Y-95560000D02*
X121800000Y-95560000D01*
X111520000Y-95560000D02*
X111520000Y-104190000D01*
X120830000Y-104190000D02*
X120830000Y-104600000D01*
X120110000Y-104190000D02*
X120110000Y-104600000D01*
X118290000Y-104190000D02*
X118290000Y-104600000D01*
X117570000Y-104190000D02*
X117570000Y-104600000D01*
X115750000Y-104190000D02*
X115750000Y-104600000D01*
X115030000Y-104190000D02*
X115030000Y-104600000D01*
X113210000Y-104190000D02*
X113210000Y-104540000D01*
X112490000Y-104190000D02*
X112490000Y-104540000D01*
X111520000Y-104190000D02*
X121800000Y-104190000D01*
X111520000Y-105650000D02*
X111520000Y-106760000D01*
X111520000Y-106760000D02*
X112850000Y-106760000D01*
D13*
X116700000Y-128732000D02*
X118450000Y-128732000D01*
X118450000Y-128732000D02*
X118450000Y-132232000D01*
X118450000Y-132232000D02*
X116700000Y-132232000D01*
X116700000Y-132232000D02*
X116700000Y-128732000D01*
X114950000Y-128732000D02*
X116700000Y-128732000D01*
X116700000Y-128732000D02*
X116700000Y-132232000D01*
X116700000Y-132232000D02*
X114950000Y-132232000D01*
X114950000Y-132232000D02*
X114950000Y-128732000D01*
D12*
X118200000Y-123732000D02*
G75*
G03*
X118200000Y-123732000I-1500000J0D01*
G01*
D13*
X121700000Y-123732000D02*
G75*
G03*
X121700000Y-123732000I-5000000J0D01*
G01*
%LPC*%
D14*
X106540000Y-130460000D03*
X126860000Y-130460000D03*
X126860000Y-98710000D03*
X106540000Y-98710000D03*
D15*
X124320000Y-119030000D03*
D16*
X124320000Y-116490000D03*
X124320000Y-113950000D03*
X124320000Y-111410000D03*
X124320000Y-108870000D03*
X124320000Y-106330000D03*
X124320000Y-103790000D03*
X109080000Y-103790000D03*
X109080000Y-106330000D03*
X109080000Y-108870000D03*
X109080000Y-111410000D03*
X109080000Y-113950000D03*
X109080000Y-116490000D03*
X109080000Y-119030000D03*
D17*
X120193000Y-114458000D03*
X121843000Y-114458000D03*
X120193000Y-112934000D03*
X121843000Y-112934000D03*
D18*
X113286000Y-112426000D03*
X111986000Y-112426000D03*
D17*
X116256000Y-115347000D03*
X117906000Y-115347000D03*
D19*
X116293000Y-116871000D03*
X117843000Y-116871000D03*
D18*
X113286000Y-117506000D03*
X111986000Y-117506000D03*
X113286000Y-114966000D03*
X111986000Y-114966000D03*
D20*
X112668000Y-109251000D03*
X116668000Y-109251000D03*
D21*
X121843000Y-111410000D03*
X120193000Y-111410000D03*
D22*
X126352000Y-113887000D03*
X126352000Y-115537000D03*
D23*
X118272500Y-111857000D03*
X118272500Y-113757000D03*
X116397500Y-112807000D03*
D18*
X106809000Y-116744000D03*
X105509000Y-116744000D03*
X106824000Y-119792000D03*
X105524000Y-119792000D03*
X121922000Y-109124000D03*
X120622000Y-109124000D03*
D24*
X112850000Y-105650000D03*
D16*
X115390000Y-105650000D03*
X117930000Y-105650000D03*
X120470000Y-105650000D03*
D25*
X117575000Y-130457000D03*
X115825000Y-130457000D03*
%LPD*%
M02*
