M48
; DRILL file {KiCad 7.0.5-0} date 2024 January 10, Wednesday 22:08:38
; FORMAT={-:-/ absolute / metric / decimal}
; #@! TF.CreationDate,2024-01-10T22:08:38+09:00
; #@! TF.GenerationSoftware,Kicad,Pcbnew,7.0.5-0
; #@! TF.FileFunction,Plated,1,2,PTH
FMAT,2
METRIC
; #@! TA.AperFunction,Plated,PTH,ViaDrill
T1C0.400
; #@! TA.AperFunction,Plated,PTH,ComponentDrill
T2C1.000
%
G90
G05
T1
X105.27Y-101.25
X105.27Y-105.06
X105.27Y-108.87
X105.27Y-122.84
X105.397Y-114.331
X105.397Y-118.268
X106.413Y-111.918
X110.35Y-126.65
X110.35Y-130.46
X114.414Y-130.457
X114.668Y-107.219
X114.668Y-115.474
X114.922Y-116.363
X115.347Y-111.156
X118.51Y-110.394
X119.24Y-109.632
X119.24Y-115.347
X120.764Y-116.871
X123.05Y-126.65
X123.05Y-130.46
X126.352Y-118.014
X128.13Y-101.25
X128.13Y-105.06
X128.13Y-108.87
X128.13Y-113.95
X128.13Y-117.76
X128.13Y-122.84
T2
X109.08Y-103.79
X109.08Y-106.33
X109.08Y-108.87
X109.08Y-111.41
X109.08Y-113.95
X109.08Y-116.49
X109.08Y-119.03
X112.85Y-105.65
X115.39Y-105.65
X117.93Y-105.65
X120.47Y-105.65
X124.32Y-103.79
X124.32Y-106.33
X124.32Y-108.87
X124.32Y-111.41
X124.32Y-113.95
X124.32Y-116.49
X124.32Y-119.03
T0
M30
