M48
; DRILL file {KiCad 7.0.5} date Sun Dec  3 19:54:58 2023
; FORMAT={-:-/ absolute / metric / decimal}
; #@! TF.CreationDate,2023-12-03T19:54:58+09:00
; #@! TF.GenerationSoftware,Kicad,Pcbnew,7.0.5
; #@! TF.FileFunction,Plated,1,2,PTH
FMAT,2
METRIC
; #@! TA.AperFunction,Plated,PTH,ViaDrill
T1C0.400
; #@! TA.AperFunction,Plated,PTH,ComponentDrill
T2C1.000
%
G90
G05
T1
X105.27Y-101.25
X105.27Y-105.06
X105.27Y-108.87
X105.27Y-113.95
X105.27Y-122.84
X105.397Y-117.887
X106.413Y-111.918
X110.35Y-126.65
X110.35Y-130.46
X114.414Y-130.457
X114.668Y-107.219
X114.668Y-115.474
X114.922Y-116.363
X115.347Y-111.156
X119.24Y-109.632
X120.002Y-115.22
X120.764Y-116.871
X123.05Y-126.65
X123.05Y-130.46
X128.13Y-101.25
X128.13Y-105.06
X128.13Y-108.87
X128.13Y-113.95
X128.13Y-117.76
X128.13Y-122.84
T2
X109.08Y-103.79
X109.08Y-106.33
X109.08Y-108.87
X109.08Y-111.41
X109.08Y-113.95
X109.08Y-116.49
X109.08Y-119.03
X112.85Y-105.65
X115.39Y-105.65
X117.93Y-105.65
X120.47Y-105.65
X124.32Y-103.79
X124.32Y-106.33
X124.32Y-108.87
X124.32Y-111.41
X124.32Y-113.95
X124.32Y-116.49
X124.32Y-119.03
T0
M30
